<svg xmlns="http://www.w3.org/2000/svg" width="74" height="74" viewBox="0 0 74 74">
  <g id="グループ_10" data-name="グループ 10" transform="translate(208 -103)">
    <g id="楕円形_2" data-name="楕円形 2" transform="translate(-208 103)" fill="#fff" stroke="#fff" stroke-width="3">
      <circle cx="37" cy="37" r="37" stroke="none"/>
      <circle cx="37" cy="37" r="35.5" fill="none"/>
    </g>
    <path id="Icon_awesome-twitter" data-name="Icon awesome-twitter" d="M30.461,10.253c.022.3.022.6.022.9,0,9.2-7,19.8-19.8,19.8A19.663,19.663,0,0,1,0,27.831a14.394,14.394,0,0,0,1.68.086,13.935,13.935,0,0,0,8.638-2.973,6.97,6.97,0,0,1-6.506-4.826,8.775,8.775,0,0,0,1.314.108,7.359,7.359,0,0,0,1.831-.237,6.959,6.959,0,0,1-5.58-6.829v-.086a7.008,7.008,0,0,0,3.145.883A6.969,6.969,0,0,1,2.37,4.652a19.778,19.778,0,0,0,14.347,7.281,7.855,7.855,0,0,1-.172-1.594A6.965,6.965,0,0,1,28.587,5.578,13.7,13.7,0,0,0,33,3.9a6.939,6.939,0,0,1-3.059,3.835,13.949,13.949,0,0,0,4.007-1.077,14.957,14.957,0,0,1-3.49,3.6Z" transform="translate(-185.975 122.832)" fill="#51bdd6"/>
  </g>
</svg>
