<svg id="グループ_450" data-name="グループ 450" xmlns="http://www.w3.org/2000/svg" width="22.156" height="17.725" viewBox="0 0 22.156 17.725">
  <path id="Icon_material-web" data-name="Icon material-web" d="M22.941,6H5.216a2.213,2.213,0,0,0-2.2,2.216L3,21.509a2.222,2.222,0,0,0,2.216,2.216H22.941a2.222,2.222,0,0,0,2.216-2.216V8.216A2.222,2.222,0,0,0,22.941,6ZM17.4,21.509H5.216V17.078H17.4Zm0-5.539H5.216V11.539H17.4Zm5.539,5.539H18.509v-9.97h4.431Z" transform="translate(-3 -6)" fill="#e8b146"/>
  <g id="グループ_16" data-name="グループ 16" transform="translate(14.653 2.022)">
    <circle id="楕円形_5" data-name="楕円形 5" cx="0.708" cy="0.708" r="0.708" transform="translate(4.043 0)" fill="#e8b146"/>
    <circle id="楕円形_6" data-name="楕円形 6" cx="0.708" cy="0.708" r="0.708" transform="translate(2.022 0)" fill="#e8b146"/>
    <circle id="楕円形_7" data-name="楕円形 7" cx="0.708" cy="0.708" r="0.708" transform="translate(0 0)" fill="#e8b146"/>
  </g>
</svg>
