<svg xmlns="http://www.w3.org/2000/svg" width="44" height="44" viewBox="0 0 44 44">
  <g id="グループ_432" data-name="グループ 432" transform="translate(-110 -148)">
    <g id="楕円形_15" data-name="楕円形 15" transform="translate(110 148)" fill="#fff" stroke="#1877f2" stroke-width="1">
      <circle cx="22" cy="22" r="22" stroke="none"/>
      <circle cx="22" cy="22" r="21.5" fill="none"/>
    </g>
    <path id="Icon_ionic-logo-facebook" data-name="Icon ionic-logo-facebook" d="M19.752,4.5H5.391a.892.892,0,0,0-.891.891V19.752a.892.892,0,0,0,.891.891h7.18v-6.39h-1.93V11.9h1.93v-1.74a3.067,3.067,0,0,1,3.309-3.22c.891,0,1.85.067,2.073.1V9.213H16.469c-1.013,0-1.207.479-1.207,1.186v1.5h2.413l-.315,2.354h-2.1v6.39h4.49a.892.892,0,0,0,.891-.891V5.391A.892.892,0,0,0,19.752,4.5Z" transform="translate(119.428 157.645)" fill="#1877f2"/>
  </g>
</svg>
