<svg xmlns="http://www.w3.org/2000/svg" width="46.07" height="46.07" viewBox="0 0 46.07 46.07">
  <path id="Icon_awesome-arrow-alt-circle-right" data-name="Icon awesome-arrow-alt-circle-right" d="M23.6.563A23.035,23.035,0,1,1,.563,23.6,23.031,23.031,0,0,1,23.6.563ZM12.823,27.684H23.6V34.27a1.115,1.115,0,0,0,1.9.79L36.118,24.387a1.1,1.1,0,0,0,0-1.57L25.5,12.136a1.115,1.115,0,0,0-1.9.79v6.585H12.823a1.118,1.118,0,0,0-1.115,1.115V26.57A1.118,1.118,0,0,0,12.823,27.684Z" transform="translate(46.632 46.632) rotate(180)" fill="#79ab94"/>
</svg>
