<svg xmlns="http://www.w3.org/2000/svg" width="44" height="44" viewBox="0 0 44 44">
  <g id="グループ_433" data-name="グループ 433" transform="translate(-56 -148)">
    <g id="楕円形_14" data-name="楕円形 14" transform="translate(56 148)" fill="#fff" stroke="#00acee" stroke-width="1">
      <circle cx="22" cy="22" r="22" stroke="none"/>
      <circle cx="22" cy="22" r="21.5" fill="none"/>
    </g>
    <path id="Icon_metro-twitter" data-name="Icon metro-twitter" d="M21.654,6.653a7.828,7.828,0,0,1-2.249.616A3.927,3.927,0,0,0,21.127,5.1a7.838,7.838,0,0,1-2.486.95,3.919,3.919,0,0,0-6.672,3.571A11.115,11.115,0,0,1,3.9,5.534a3.919,3.919,0,0,0,1.212,5.227,3.9,3.9,0,0,1-1.773-.49c0,.016,0,.033,0,.049a3.918,3.918,0,0,0,3.141,3.839,3.922,3.922,0,0,1-1.768.067,3.919,3.919,0,0,0,3.657,2.719A7.855,7.855,0,0,1,3.5,18.621a7.941,7.941,0,0,1-.934-.055,11.081,11.081,0,0,0,6,1.759A11.063,11.063,0,0,0,19.711,9.186q0-.255-.011-.507a7.953,7.953,0,0,0,1.954-2.027Z" transform="translate(66.832 157.963)" fill="#00acee"/>
  </g>
</svg>
