<svg xmlns="http://www.w3.org/2000/svg" width="13.802" height="18.403" viewBox="0 0 13.802 18.403">
  <path id="Icon_awesome-tree" data-name="Icon awesome-tree" d="M13.6,13.6l-2.871-3.252h1.1a.817.817,0,0,0,.747-.469.792.792,0,0,0-.118-.864L9.648,5.75h1.038a.814.814,0,0,0,.75-.489.8.8,0,0,0-.152-.865L7.32.173a.592.592,0,0,0-.838,0L2.518,4.4a.8.8,0,0,0-.152.865.815.815,0,0,0,.75.489H4.154L1.346,9.018a.794.794,0,0,0-.118.864.817.817,0,0,0,.747.469h1.1L.2,13.6a.8.8,0,0,0-.128.872.834.834,0,0,0,.755.476H5.751v.879L4.662,17.57a.575.575,0,0,0,.514.832H8.626a.575.575,0,0,0,.514-.832L8.051,15.83v-.879H12.97a.834.834,0,0,0,.755-.476A.8.8,0,0,0,13.6,13.6Z" transform="translate(0 0)" fill="#4e8e6e"/>
</svg>
