<svg xmlns="http://www.w3.org/2000/svg" width="74" height="74" viewBox="0 0 74 74">
  <g id="グループ_399" data-name="グループ 399" transform="translate(-1682 -174)">
    <circle id="楕円形_15" data-name="楕円形 15" cx="37" cy="37" r="37" transform="translate(1682 174)" fill="#fff"/>
    <path id="Icon_ionic-logo-facebook" data-name="Icon ionic-logo-facebook" d="M31.419,4.5H6.073A1.574,1.574,0,0,0,4.5,6.073V31.419a1.574,1.574,0,0,0,1.573,1.573H18.746V21.714H15.34V17.559h3.406V14.487c0-3.68,2.552-5.684,5.839-5.684,1.573,0,3.265.119,3.658.171v3.843H25.624c-1.788,0-2.129.846-2.129,2.092v2.649h4.259L27.2,21.714h-3.7V32.992h7.924a1.574,1.574,0,0,0,1.573-1.573V6.073A1.574,1.574,0,0,0,31.419,4.5Z" transform="translate(1700.254 192.947)" fill="#1877f2"/>
  </g>
</svg>
