<svg xmlns="http://www.w3.org/2000/svg" viewBox="0 0 2584.94 238.73"><defs><style>.cls-1{fill:#fff;}</style></defs><g id="レイヤー_1" data-name="レイヤー 1"><path class="cls-1" d="M3,1l1.44.16L5.88.57,7.31.89,8.75.49l1.44.88L11.62.81,13.06.57,14.5.89,15.93.83,17.37.44l1.44.48L20.25,2,21.68.86l1.44.46,1.44-1L26,.79,27.43.16l1.44.43L30.31,2l1.44,0L33.19.73,34.62,2l1.44-2L37.49,1.1l1.44.3,1.43.35,1.44.31,1.43-.29,1.44-.27L46.11.35,47.55.26,49,1.48l1.44.2,1.44-.26L53.3.64,54.74.35l1.43,1.29,1.44-.22,1.44.51,1.44.14L61.93,0l1.44,1h1.44L66.25.34,67.69.4l1.44.74L70.57.52,72,2,73.45.28l1.44.37,1.45.27,1.44.74,1.44-.08L80.66.63l1.45,1L83.55-.08,85,.1l2.19.15L85.84,2.43l-.38,1.43,2.06,1.43-.18,1.43-.92,1.44-.14,1.43L85.45,11l1.26,1.43-1.38,1.44.7,1.43,1.28,1.43L86,18.18l-.6,1.43L85.61,21,86,22.48l1.48,1.43L87,25.35l.42,1.44-.61,1.81L85,27.55l-1.45-.25-1.45-.16-1.44,1.74-1.45-1.6-1.44.26-1.45-.28-1.45-.14-1.45.75-1.45,0-1.45.36-1.45.32-1.45-.21-1.45.76L64.72,28H63.27l-1.45,1.29-1.45.07-1.45-.52-1.45-1.6-1.45,0-1.46,1.46-1.45-.47L51.66,29,50.2,27.43,48.75,29,47.3,28l-1.45,0L44.4,28l-1.46-.68-1.45.78L40,28l-1.46.09-1.45.78-1.46.36-1.46-.67L33,28.47l-1.21,1.19,1.36,1.44-.4,1.44L32.18,34l1.19,1.44-.3,1.44,0,1.43-1.29,1.44.66,1.44.28,1.43L33.85,44l-.56,1.43.26,1.44-1.07,1.44,1,1.43-.69,1.44.4,1.43L32,54.09l1.26,1.43L32.92,57l-.49,1.44L33,59.84l.14,1.44.43,1.44-.9,1.44-.84,1.44L33.44,67l.27,1.44-2.05,1.44,1.23,1.43.65,1.44L33,74.22,31.9,75.66l1.62,1.43-.9,1.44L32.9,80v1.44l-.37,1.44.67,1.44-1,1.44,1.59,1.44-1.1,1.44L32.66,90l-.82,1.44-.07,1.44,1.46,1.44,0,1.44-.4,1.44.92,1.44-1.8,1.44.57,1.44L32.26,103l1,1.44.43,1.44-1.33,1.44,1.17,1.44L33,110.2l-.45,1.44-.43,1.43.73,1.44L32.69,116l1.09,1.43L33,118.82l.09,1.44-1,1.44L32,123.14l1.31,1.44L32.82,126l-1,1.44-.17,1.44.64,1.44.33,1.44,1.2,1.44-1.4,1.44L33,136.1l.61,1.45.22,1.44-1.23,1.44.63,1.44-1.32,1.44.28,1.45,1.41,1.44-.16,1.45-1.79,1.44,1.18,1.44L33.1,152l-1.28,1.44.59,1.45-.36,1.44,1.15,1.45-1.52,1.45.28,1.45.32,1-.94.29-1.42.63-1.41-1.36-1.42,0-1.41-.12-1.42.94-1.41-.19-1.42-.62L20,163.19l-1.41-1.05-1.42-.37-1.41.25-1.42.71-1.41-.87-1.42,1.3-1.42-1.41-1.42.33L7.27,162l-1.42.83-1.43-1.09-1.66.58,1.17-1.68-1-1.44-.58-1.43L3,156.36l.21-1.44L2,153.49l.35-1.44L4,150.62,2.4,149.19l.27-1.43-.11-1.44.27-1.43-.13-1.43L2.37,142l.6-1.43-.39-1.43-.35-1.44.88-1.43-.95-1.44,1.71-1.43,0-1.44-.47-1.44-.31-1.44.5-1.44L2,126.22l1.47-1.43-.13-1.44.48-1.44-.31-1.43-1-1.44-.28-1.43.76-1.44,0-1.43L2.7,113.3l-.52-1.43,1.13-1.44,0-1.44-.81-1.43-.39-1.44,1.09-1.44.57-1.44L1.93,101.8l.37-1.44,1.18-1.43L3,97.49,4.1,96.05,1.92,94.61V93.18L3.7,91.74l.4-1.44L2,88.87l1-1.44L2.91,86l.7-1.44L2,83.11l2-1.44L2.89,80.23l-.58-1.44.51-1.43L2.1,75.92l1.8-1.44L3.09,73l.27-1.44,0-1.44-.56-1.44,1-1.44-1-1.44L3,64.41,2.61,63l.92-1.44L2.2,60.09l1.17-1.44.74-1.44L3.9,55.77,2.26,54.33l.22-1.44,1.38-1.44L2.58,50l1.53-1.43-1.5-1.44L4,45.71l-.84-1.44.25-1.44-.25-1.44L2.27,40l.89-1.44-.59-1.44,1.14-1.44-1-1.44L3,32.75l1.08-1.44L2.84,29.87l.06-1.44L3.83,27l-.18-1.44L2.46,24.11l-.31-1.45-.26-1.44,1.85-1.44L3.3,18.34l-.95-1.45,0-1.44L4.11,14l-.74-1.44-.12-1.45.83-1.44-1-1.44.23-1.45L2.09,5.35,3.66,3.9,1.89,2.45Z"/><path class="cls-1" d="M258.72,64.29l-2.28,1.24-.57,1.33.94,2-.43,1.4L256,71.68,255.49,73l.2,1.7-1.89.73-.71,1.27.45,1.83-1.27,1,.27,1.76-1.41.93-.19,1.54-1.29,1L249,86.1l-1.11,1.06.5,1.92-1.17,1L247,91.66l-2.5.29.18,1.76-1,1.13-.35,1.48-1.53.8.66,2.07-2.54.2-.52,1.63-.45,1.49.7,1.43,1.2,1.43,0,1.43-2.13,1.44.29,1.43,1.44,1.43-.51,1.43L238.61,114l2,1.44.93,1.43-.8,1.43-2.09,1.43-.35,1.42,1.62,1.43,1,1.43-.37,1.43.06,1.43.34,1.43-2.66,1.43,1.37,1.43,1,1.43.07,1.43v1.44l.56,1.43,0,1.43-.28,1.44.08,1.43-.27,1.43L239.27,144l2.29,1.43-.13,1.43-2.54,1.43-.1,1.43,1,1.43,1.56,1.44L239.2,154l0,1.43-.47,1.44.59,1.43,1.25,1.43-1.5,1.43,2.44,1.43-1.69,1.44-.29,1.43-1,1.43,2.61,1.43-1.65,1.44-.74,1.43,1,1.44,1.26,1.43-1.82,1.43-.64,1.43,1.22,1.44.57,1.43.28,1.44-1.4,1.43,0,1.43,1.7,1.44L238.44,187l3.19,1.43-.71,1.43-2.29,1.43.93,1.43,1,1.43L239,195.58l1.14,1.43.29,1.43.78,1.43-2.53,1.43,2.3,1.44.24,1.43-.51,1.44.36,1.43-2,1.43,1.58,1.44.68,1.43-1.42,1.44.23,1.44.06,1.43,0,1.44.28,1.43,1.16,1.44-3.12,1.44,1.22,1.44-.9,1.43.44,1.43,2.13,1.44-1.91,1.44.88,1.44-2,1.44,2.51,1.43-.41,1.45-.63,1.44-1,.36-.29.74-1.42.24-1.41-1.06-1.4.51-1.42,1.18-1.41-.77-1.41-1.26-1.41,2.37-1.41-.22-1.41.81-1.41-.26-1.41-.27-1.41-.74-1.41-.9-1.41-.95-1.42,2L216,238.7l-1.42.18-1.41-.36-1.48-1.24,1-1.5-1-1.45.22-1.45,1.23-1.44-.83-1.45L211,228.54l-.43-1.44,2.71-1.45-2.46-1.45,1.35-1.45-1.55-1.45,1.14-1.45.35-1.44L210.53,217l1.3-1.45-1-1.45-.39-1.44,1.32-1.45-1.26-1.45,1.37-1.45-1.78-1.45,1.05-1.45-.06-1.45.58-1.45.5-1.44.51-1.45-2.31-1.45,1.65-1.45-1.16-1.45,2.51-1.45-1.91-1.45.91-1.45-1.33-1.45,1.12-1.44.37-1.45-.91-1.44.41-1.45-.21-1.45-1-1.45,2.28-1.45-2.85-1.45.27-1.44V175l1.21-1.45.22-1.45-.87-1.45.48-1.45-.6-1.45,1.31-1.45-.83-1.45-.36-1.45.47-1.45-.08-1.45-.58-1.46.71-1.45,1.62-1.45-1.72-1.45.69-1.46-1.46-1.45.68-1.45-.93-1.45.64-1.45,2.11-1.46,0-1.45L211.35,143l1.9-1.45-2.94-1.46,1.57-1.5-1.55.7L209,140l-1.33.72-.71,1.32-.75,1.3.15,2.24-1,1.1-2.3-.34-1.27.76-.82,1.25-.32,1.83-.82,1.27-2.34-.51-.91,1.17-.6,0,.27-.74-3.35.77.22-2-.88-1.13-1.54-.61-.82-1.17,0-1.8-1.62-.55.78-2.48-2.86.49,0-1.3-.13,1L184.83,144v1.44l1.28,1.56-1.57,1.3,2.35,1.67-.39,1.41.07,1.47L184,154l-.71,1.38,2.87,1.76-.41,1.41-1.53,1.28-.37,1.41-1.39,1.28,1.66,1.66-2.21,1.17.84,1.56,1.67,1.69-2.18,1.15-1.08,1.3.15,1.47.32,1.51,1.94,1.77-.9,1.33.38,1.53-.91,1.31-2,1.12-.63,1.35-.5,1.36,2.26,1.91-2.6,1,.09,1.48-.7,1.33-.5,1.36.79,1.65-.38,1.39.19,1.52.13,1.52-.64,1.33.74,1.68-1.94,1-.36,1.4,1.46,1.89-.28,1.43-1.13,1.19-2.68.72-.45,1.37,1.65,2-1.1,1.17.71,1.75-2.61.66,1.77,2.13-1.94.86-.51,1.35-.41,1.39-1.44,1,.57,1.76-.74,1.25-.42,1.39.51,1.78L169,229l-1.5.93-.54,1.35-2.37.48,1.2,2.16-1.18,1-1.39.91.9,2.1-1.41,1.29-1.44-1.13.11-2.4-1.77-.18-1.41-.58-2.2.52-.68-1.53-1.41-.52-.3-2.13-2,.38L150.9,230l-1.55-.29-.33-2.24-2.23.82-1-1.18-.9-1.36-1.7,0-1.38-.52-1.58-.13-.69-1.85-.78-1.76-2.87.92.39-2.25,3.36.11-1-2.12-.24-1.71,1.4-.93,2-.66-1.61-2.3,1.78-.8.18-1.49.53-1.34,1-1.15-.4-1.7,1.84-.86-1.73-2.14,2-.83.56-1.33,1.61-1,.53-1.36-1.63-2,.44-1.36,1-1.22-.9-1.75,2.94-.69-.45-1.62.71-1.31-1.07-1.76-.29-1.55,2.24-1-1.36-1.79,1.08-1.24.95-1.27.91-1.29L152,177.1l.5-1.38L151.15,174l1.41-1.21.11-1.44,1.67-1.18.36-1.41L153,167l.95-1.31,1.68-1.22.44-1.4-.72-1.57-.29-1.5-1.58-1.65,2.23-1.18-.65-1.54-.73-1.53-.16-1.47,1.95-1.24-.77-1.54,2.09-1.25-.28-1.48-2-1.63.36-1.42,2.76-1.22-1.63-1.58-.3-1.48,2-1.3-.76-1.51.62-1.41-1.61-1.55,2.33-1.32-.33-1.48-.13-1.46-.64-1.48-.88-1.49,2.08-1.36V124l.22-1.44-1.34-1.5.34-1.44,1-1.42-2.83-1.52,1.59-1.4.58-1.44-.34-1.45-1-1.46,1.31-1.42-1.9-1.47,2.1-1.42-.47-1.45.1-1.44-1.22-1.44,1.62-1.44-1-1.44L159.67,98l-1.45-1.43-.85-1.43,1-1.43.31-1.43-1.8-1.42.52-1.43L159.75,88l-2.33-1.43.39-1.43-.17-1.43.41-1.43-.19-1.42-.48-1.43.88-1.43-.58-1.42-.52-1.42,1.3-1.42-1.4-1.43,2.54-1.43,0-1.43-.7-1.42-.46-1.43.74-1.42-2.32-1.43L159,62.31l-.19-1.42.71-1.43L159.05,58l-1.56-1.43-.42-1.43,1.12-1.43,0-1.43-.3-1.43-.77-1.43L158.76,48l.06-1.43-1.2-1.43-.57-1.43,1.61-1.43.84-1.43-2.78-1.42.55-1.44L159,36.58l-.73-1.43,1.65-1.43-3.23-1.43V30.85l2.63-1.44.11-.28.3-2.59,1.44,1.53,1.45-.22,1.44,1,1.45-2.35,1.45,3,1.45-1.71,1.45-.87,1.44.77,1.45-1.07,1.44,2.66,1.45-1.21,1.45.4,1.44,0,1.45-.83,1.45,1.46,1.45-1.42,1.45.34,1.44-.62,1.45,1.37,1.45-2,1.45,1.73,1.44,1.08,1.45-.3,1.45-2.43,1.45.33,1.45,2,1.44-1.9,1.45,2.27,1.44-2.22,1.44,2.07,1.45-1.25,1.45.37,1.45-.36L209,26.89l1.44,1.32,1.45-.87L213.28,29l1.45-1.49,1.45.49,1.45,1.6,1.45-1.89,1.45.09L222,29.2l1.45-.26,1.46-1.76,1.44-.45,1.45-.4,1.46,2.74,1.45-.65L232.13,27l1.45.06L235,29.61l1.45-1.09,1.45-.18,1.45,1.24,1.45-1.42,1.46.33,1.45-1.85L245.19,29l1.46-2.62,1.46,2.36,2.36.22.51-2.35-1.21-1.41-.58-1.41-.36-1.42-.44-1.41,1.21-1.41-.14-1.42-.86-1.41,1.49-1.41,1.07-1.41-.75-1.42L248.3,11l1.5-1.42-1.32-1.41,2.45-1.42-.08-1.42.35-1.42-1-.77L251,1.57l1.42.12,1.42-.53,1.42,1.19,1.42-.23,1.42.55,1.41-1,1.43,0,1.42-.35L263.76,1l1.42,1.47,1.42.94,1.42.43,1.42-.29,1.42-.61,1.42.86L273.7,1l1.42,1.17,1.43-1.11L278,.91l1.43,1h2.06l-.89,2.06,0,1.41-.48,1.41-.85,1.41L281,9.58,280.63,11l.49,1.41-1.18,1.42-.31,1.41,2.13,1.41.05,1.42L280,19.47l2.06,1.42-1,1.41-1.27,1.42,1.11,1.41-.43,1.43-.22,2,2,.15,1.43.8,1.42-.15,1.43-2.89L288,28.93l1.43-.3,1.43-1.55,1.43.6,1.43-.25,1.42.45,1.43-.49,1.43-.17,1.43,2.25L300.82,28l1.42-1.08,1.43,1.24,1.43.3,1.43-.78L308,28.81l1.43.11,1.43,0,1.43-.33,1.43-.16,1.43.29,1.43-1.62,1.43.16,1.42.88,1.43,1.14,1.43-2.44,1.43,2.49,1.42.27,1.43-2.85,1.42-.15,1.43,1.15,1.43-1.19,1.43,2.23,1.43-.72,1.43-.41,1.43-.49L338,28l1.43.9,1.44.09,1.43-1.27L343.67,29l1.43-2,1.44-.64L348,27.62l1.43-.15,1.43,1,1.43-1.37,1.43,0,1.44,1.87,1.43-1.52,1.43.42,1.43-.25,1.43.38,1.44.8,1.43.59,1.43-2.54,1.44,2.73,1.43-.23,1.44-2.23,1.44.23,2.32-.17-1.59,2.32,1,1.46-.13,1.46-1.32,1.46,1.14,1.46-.5,1.45,1.44,1.46.24,1.46-1.55,1.46,1.85,1.46L372.85,44l.35,1.46.43,1.46-1.26,1.46,1.47,1.46L371,51.31l1.46,1.47-.13,1.46,1.11,2.52-2.5-1.28-1.45.37L368,55.23l-1.43,2.12-1.44-.74L363.7,55l-1.44-.48-1.44,2.73-1.44-2.4-1.44.49-1.44.08-1.45.9-1.44-2.16-1.44.92-1.45,1.72-1.44-2.66-1.44,1.85-1.44.44L345,54.08l-1.44,1.33-1.44-1-1.44.31L339.2,56.6l-1.44-.85-1.44.6-1.44-2.14-1.44,1.2L332,54.09l-1.44.51-1.44.59L327.69,55l-1.44-.68-1.44,2.15-1.44-2.06-1.44.51-1.44.8-1.45.64-1.44.81-1.44-2.66-1.45-.31-1.44,1.16-1.45,1.22-1.44.49-1.44-2.77-1.44,1.2-1.44-1.25-1.45,2-1.44,1-1.44-2-1.44-.15-1.44-.23-1.44,0L296,54.45l-1.44,2.91-1.45-2.07-1.44-.43-1.44-.21-1.45,2.1-1.45-1.94-1.44,2.56-1.44-.91L283,56l-1.44-.75-1.44-1.09L278.65,57l-1.45-1.44-1.44,1.66-1.44-2.4-1.45.31-1.44,1.33-1.45-2-1.44-.35-1.45.53-1.44,0-1.45.77-1.44-.87-1.44,1.67-1.45,1.17-1.44-2.85L257,55.6l-1.44-.72-1.45.17-1.44,1.66-1.45.13-1.44-2.24-1.45.76-1.44-1.07-1.45,1.38L244,55.11l-1.45.51-1.44.59-1.45-1.72-1.45,2.87-1.44-2.29-1.44.94-1.44-1.25-1.44,1.31-1.44-.5L229.54,55l-1.45.06-1.44-.57-1.44.87-1.45,1.07-1.44-1.53-1.45-.5-1.45.61L218,54.51l-1.45-.14-1.44,1.56-1.45.69-1.45.52-1.45-2.35L209.3,57l-1.45-1.55-1.45.58-1.45.84L203.5,57l-1.45-2-1.44,1.86-1.45-1.45-1.45-1-1.45,0-1.45,1.33-1.45.58-1.45-.24-1.45.77L189,55.66l-1.37.13-.11,1.33.95,1.41L186.78,60l2,1.41.42,1.41,0,1.42L186.7,65.6,188.23,67l-.18,1.41-.17,1.42-.13,1.42-1,1.41,1.08,1.42-.58,1.42v1.41l0,1.42,1.42,1.42-2,1.42,1.69,1.41L189,84l-1.86,1.41,1.48,1.42-1.72,1.42,1.27,1.42-.86,1.42.56,1.42.73,1.42.44,1.43-1,1.42.59,1.45-2,1.43.76,1.45L186,102.54l2.63,1.48-2.6,1.4,0,1.43.23,1.45,2,1.49-.42,1.43.5,1.46-2.27,1.38.63,1.46-.45,1.44,2.18,1.5-1.66,1.4-1,1.42,1.26,1.34.37-1.44,1.5-.52,2.18.11v-2l.16-1.8,2.66.49,0-1.91.21-1.73,1.43-.64,2.1-.1L197.5,111l.51-1.43,2.13-.12.22-1.66,1.92-.32-.47-2.18v-1.79l1.62-.57.33-1.53.48-1.4,3,.38.41-1.48.62-1.32.26-1.55.77-1.2V93.13l1.61-.66-.07-1.74,2.19-.32,1.18-1V87.77l2.06-.46-.6-2,1.09-1L215.69,82l3.07.06.73-1.25-1.71-2.53.53-1.32,3-.08-1.26-2.24.47-1.35,1.89-.68.36-1.41-.63-1.87,3.16-.14-1.94-2.42,2.81-.35-.56-1.79.15-1.49.07-1.5,1.49-.95.89-1.2-.15-1.57.79-2,1.29,1.68,1.63-.43.91,2.19,1.49.07,1.66-.58,1.1,1.49,1.87-1.29L240,60.38l1.28.86,1.62-.42,1.55-.14,1.67-.62,1,2,1.72-.76.93,2.1,1.54-.12,1.24,1,1.92-1.47,1.06,1.64,1.53,0ZM374,119.9,372.19,118h-1.41l-1.42,1.64-1.41.16-1.41.25-1.42.09-1.41.88-1.42-1.39-1.41-.09-1.41,1.19-1.41-.7-1.42,1-1.41-.84-1.42.53L352.4,120l-1.42,0-1.42-.49-.41.92-.12.42.54,1.42-2,1.43,1,1.43-.29,1.43.43,1.42-.92,1.43,1.6,1.42-2.09,1.43.34,1.43-.44,1.42.69,1.43,1.2,1.43,0,1.43L347,140.9l.29,1.42,1.43,1.43-.51,1.43-1.41,1.42,2,1.43.92,1.43-.79,1.43-2.08,1.43-.34,1.42,1.6,1.43,1,1.42-.37,1.43.06,1.42.34,1.43-2.65,1.42,1.37,1.43,1,1.43.08,1.43V168l.56,1.43,0,1.43-.28,1.43.07,1.43-.26,1.42-1.62,1.43L349.7,178l-.13,1.43-2.52,1.43-.1,1.43,1,1.43,1.54,1.43-2.15,1.43,0,1.43-.47,1.43.59,1.44,1.24,1.42-1.49,1.43,2.42,1.44L348,196.6l-.28,1.43-1,1.43,2.59,1.43-1.64,1.44-.73,1.44,1,1.44,1.24,1.44L347.3,208l-.68,1.39,1.13,1.48.46,1.47.14,1.47-1.56,1.25-.24,1.38,1.38,1.73-2.68.81,2.64,2.26-1.16,1.19-2.64.42.21,1.64.11,1.74-2.1.24,0,1.8-.81,1.23-.61,1.56L338.22,230l.07,2.68-1.16,1-1.55.24-1.24.92-2.08-1.34-.86,2-1.22,1.08-1.8-1L327,236l-1.42.37-1.42.32-1.4.52-1.28,1.36-1.87-2.87-1.29,1.38-1.53-.74-1.41.56-1.29,2.23-1.59-1.79-1.4,1-1.55-1.9L308.22,239l-1.48-.37-1.47-.58-1.49-1.38-1.43,1.22-1.46.26-1.47-1-1.45.51-1.46,1.17-1.46-.76-1.45-1.26-1.48,2.34-1.88-.39L289,237l0-1.42v-1.44l.42-1.56L290,231l.55-1.64-2.29-.89-1.48-1.06-.58-1.31-.07-1.47.71-1.73.49-1.69-1.4-1.05-.28-1.43.63-1.78L285,215.89l-1.77-.84-.95-1.15,1.89-2.4-2.81-.31.56-1.48,1.17-1.31,1.42,1.18,1.45.39,1.5-1.5,1.42,1.33,1.48-.91,1.46-.36,1.43,1.34,1.48-1.23,1.43,1.39,1.48-1.74,1.44,1.06,1.46,0,1.45.6,1.45.51,1.45.51,1.47-2.28,1.45,1.64,1.46-1.14,1.45,2.5,1.45-1.9,1.45.91,1.39-1.39,1.64.81,1.67-.47.28-1.82.78-1.32-.11-1.51-1-1.44,2.27-1.45-2.83-1.45.26-1.45,0-1.44,1.19-1.45.23-1.45-.87-1.44.47-1.45-.59-1.44,1.3-1.45-.82-1.45-.36-1.45.47-1.45-.08-1.44-.58-1.45.7-1.45,1.62-1.44-1.71-1.45.69-1.45-1.46-1.45.68-1.45-.92-1.44.63-1.45,2.1-1.44,0-1.45-1.93-1.44,1.89-1.44L317.72,163l1.57-1.45.45-1.45.5-1.45.46-1.44-.42-1.45-.4-1.44-1.69-1.45-.13-1.45,1.8-1.45.29-1.45-.38-1.45-1.16-1.45-.42-1.45,1.89-1.45-.31-1.45.74-1.45.21-1.45-3.1-1.45,1.39-1.45V134l-.83-1.45.09-1.45,1.08-1.45-.91-1.45,2.16-1.45-2.51-1.46.55-1.45.38-1.46,1.1-1.45-.37-2.06L317.7,120l-1.44-1.44-1.45,2.47-1.44-.25-1.44.22-1.45-2.44L309,118l-1.45,3-1.44-.26-1.44-1.35-1.44-.21L301.83,118l-1.44,1.84-1.44-2-1.45,1-1.44,1.87-1.45-2-1.44-.87-1.44.35-1.44.55L288.84,121l-1.44-.67-1.45.62-1.44-.67-1.45-1.76-1.44-.37-1.45-.24-1.45,2.56-1.44-2.35-1.45.38-1.45-.42-1.44-.2L271.49,119,270,118.9l-1.45.53-1.44.47-1.44-.31-1.45,1.12-1.45-1.63h-1.45L259.91,121l-1.45.11-1.45-.76L255.56,118l-.35.42-1.69-.35.7-1.46L253,115.12l2.27-1.46-2.34-1.46,1.53-1.46,0-1.46-.1-1.46,1-1.46-1.16-1.45.23-1.46-.14-1.46-1.14-1.46-.53-1.46,1-1.46-.07-1.46,1.94-1.46-2-1.47.59-1.45,1.42.83L257,90.84l1.44.45,1.45,0,1.44,1.89,1.44-1,1.45-.41,1.44-1.71,1.45.83,1.44-.39L270,92.15l1.44-1.42,1.44,1,1.44-.59,1.44,1.7L277.19,91l1.44.5,1.45.71,1.44-.86,1.44-.21,1.44-.63,1.45,1.33,1.45,1.23,1.44-2.33,1.44-.41,1.45,3,1.45-1.82,1.44-1,1.45.87L297.41,93l1.45-2.38,1.45,1.31,1.45-.41h1.44l1.45.54,1.45-1,1.44,1.42L309,90.17l1.45,1.62,1.45.09,1.45,1.22,1.44.09,1.46-2.14,1.45,0,1.39.61-1.37-1.35,2.64-1.42-.85-1.42.36-1.42-1.46-1.42-.64-1.41,2-1.42L318,80.41l.78-1.42.66-1.43.63-1.42L319,74.72l.23-1.42-1.6-1.41,1.17-1.43L318.66,69l1.43-1.42.13-1.42-1.93-1.42.74-1.43,1.47-1.43-.23-.29.32-.47,1.45-.48,1.45-1.77L324.93,61l1.45-.83,1.45-.89,1.45-.33,1.45,1.81,1.45-.92,1.45,1.94,1.44-.42,1.45-2.07,1.45.24,1.45,2.63,1.45-1.74,1.45-.41,1.45,1.88,1.46-.86,1.45.53L348.6,60l-2,1.9.4,1.41.21,1.42.71,1.42.94,1.42-2,1.42.05,1.42-.17,1.42,1.38,1.42-.29,1.42-.9,1.42,2.85,1.42L348.2,79l-.54,1.42.37,1.42,1,1.42-1.28,1.42,1.91,1.43-2.07,1.42.48,1.42L348,90.33l.9.65.63,1.28,1.41-1,1.41,1.87,1.42-1.44,1.41-.85,1.42,1,1.41.32,1.41-1.79,1.41.51,1.42,2.37,1.41-2.31,1.41.39,1.42-.17,1.42.41,1.41-.19,1.42-.48,1.42.87,1.86-.38.69,1.89-1.29,1.45,1.39,1.46-2.52,1.46.05,1.46.69,1.45.47,1.46-.75,1.46,2.31,1.46-2.16,1.46.2,1.45-.72,1.47.46,1.45,1.55,1.46.41,1.47-1.11,1.46,0,1.46L374,118Zm-94.77,9.84-.32,2.63.83,1.17,2.17.24.94,1.11,1,1.06.86,1.16,1.53.73-.39,2,.69,1.27,1.77.6.16,1.6,1.61.73,0,1.67,1.19,1,.11,1.61.75,1.23.29,1.5,1.86.63.23,1.53,1.16,1-1.12,2.23,1.55.82.4,1.42,1,1.11-.19,1.7,2.07.61-1.26,2.2.91,1.17.2,1.49,1.22,1,1.67.84.6,1.33-1.42,2.14.81,1.22,1.85.82,0,1.53-.46.35-.15,2.23-.94,1.44-1.65-.13-2.18-1.3-1.47.29-.67,2.05-.91,1.53-1.47.26-1.31.65-1.18.91-2.41-1.82-.76,1.84-.91,1.53-1.3.67L285,187l-1.09,1.1-1.35.58-1.44.34-1.66.77L278,187.49l1.08-1.86-2.61-.59-.36-1.36,1.85-2.22-.43-1.37-1.47-1-2-.72,1.44-2.14L275,175l-.14-1.5-1.12-1.06-1.72-.78.76-1.92-2.8-.26.9-2-.36-1.41.27-1.73-2.95-.12.82-2v-1.6l-1.51-.83-1.77-.68.93-2.11-.13-1.57-1.75-.67-1.18-1-.95-1.11.5-1.93-.69-1.25-2.18-.38,1.35-2.47-3.45.41-.14-1.58,1.18-2.41-1.55-.72-1.6-.66.35-.75.62-1.42,1.22-.82,1-1.25,2.29,1.78.46-2.66,1.24-.77,1.52-.08,1.2-.87,2.08,1.31.74-2,1.07-1.17,1.87.76,1.24-.75,1.31-.61,1.32-.58,1.22-.81.64-1.47Z"/><path class="cls-1" d="M587.15,150.23,587,151l-.5,1.69,3.05.49,0,1.53-.55,1.71-.25,1.62.83,1.24.11,1.5.24,1.46,3,.35-1.55,2.17,1.48.95-.42,1.74.7,1.27,1.86.75,1.17,1L596,172.1l1.16,1-1.64,2.4,3.29,0-.31,1.76-.38,1.82,2.78.13-1.75,2.6L600,183l1.86.58-.45,1.94,2.79,0L604,187.3l1.92.44.3,1.5.35,1.49.28,1.56,2.35,0-.64,2.3,2.41-.12-.12,1.95.56,1.42.75,1.27,1.25.8,2.29-.35.63,1.39,0,2.23,2-.24,1.56.2-.25,3,1.33.68,2.35-1.51,1.33.31.61,2.65,1.65-.61,1.49-.66,1.34.81,1-1.39,1.14-.17.69-1,2.34-.11,1.39-1-2-2.4,1.86-.87,1.25-1.18-.64-1.68-.26-1.54-.37-1.53.47-1.38,1.23-1.27,1.64-1.25-.35-1.53-1.39-1.63,1.41-1.31-1.6-1.63,1.28-1.34-.74-1.53,1.15-1.37,0-1.46.66-1.42-.61-1.5.34-1.44.74-1.43-1.17-2.21,2.46.38.31,1.83,1.25.68,1.08.92.12,2.33,2.5-1.19,1,1,1.52.21,1.33.5-.07,3,1.8-.29,1.55.09,1.15.87.8,1.61,1.63-.12.64,2.08,1.34.56,2.41-2.19.72,2.1,1.57-.23,2.33.19-2.33,2.06,1.69,1.65-2.26,1.2,1.9,1.7-1.31,1.3L663,194.75l.57,1.54-1,1.3.73,1.58.64,1.58-.32,1.41-1.32,1.23-1,1.27,1.78,1.85-.66,1.34-.32,1.43-1.73,1,.55,1.65,1.28,1.9-3.36.46,1.39,2-1.46,1,1.48,2.15-1.14,1.13-.13,1.58-2.17.56.25,1.81-1.27,1-2.22.24-.21,1.58-1.33.72.68,2.57-2.54-.54-.16,2-2.2-.56-.75,1.34-.72,1.6-1.55.12-1.5.07-1.46,0-.7,2.59-1.55-.1-1.46.14-1.66-1.22-1.12,2.37-1.45.39-1.62-2.23L630.92,239l-1.46.39L628,237.57l-1.5,1.71-1.32-2.3-1.5.74-1.58.89L621,236.05l-1.93,2.38-1.38-.62L617,235l-2.05,1.88-1.42-.38-1.42-.42L611,234.85l-.54-2.34-1.88.67-.92-1.35-1.9.5-.5-2-1.85.28-.59-1.73-1.2-.75-1.42-.46-1.89.12-.93-1.17-.71-1.41-.3-1.86-1-1-2.46.57-1.49-.54-.47-1.6-.16-1.85-.92-1.09-2.33.18-.89-1.15-.17-1.77-.56-1.39-2.53.19-.25-1.66-1.65-.57.85-2.43-2.61.1,1.61-2.91-1.32-.82-2.35-.16-.59-1.35-.15-1.62-.84-1.18-.25-1.53.08-1.72-2.44-.24,1.06-2.26-.69-1.25-2.11-.48-.82-1.2-.88-1.16-.74-1.25-1.42-.9.59-1.91-.55-1.33-1.67-.82v-1.6l-1.49-.91.16-1.66-1-1.13.07-1.6-.59-1.32-.11-1.52-1.75-.86,0-1.54-1-1.16,1.36-2-1.42-1-.22-1.45-.88-1.22.38-1.67-2-.86,1.48-2-.76-1.26,0-1.5-1.07-1.18-1.55-1-.44-1.38,1.59-2-.68-1.31-1.74-1,.12-1.51-1.44-1.38-1.45,2-1.45.91-1.46-.78-1.45-2-1.46-.34-1.45,1.57-1.45,1-1.46-.36-1.45.06-1.45.33-1.45-2.59-1.45,1.34-1.45,1-1.46.08h-1.45l-1.45.55-1.46,0-1.45-.28-1.45.07-1.46-.26-1.45-1.59L521.19,151l-1.45-.13-1.45-2.47-1.46-.1-1.46,1-1.45,1.52-1.46-2.11-1.46,0-1.45-.46-1.46.57-1.46,1.22-1.46-1.46L503.72,151l-1.46-1.65-1.45-.28-1.46-1-1.46,2.54L496.43,149l-1.46-.71-1.46.94-1.46,1.22-2-1.55-.86,2,1.19,1.46.56,1.46.27,1.45-1.36,1.45,0,1.46,1.66,1.45-2.38,1.45,3.11,1.46-.7,1.46-2.23,1.45.91,1.46,1,1.45-1.53,1.46,1.11,1.46.29,1.46.76,1.45-2.47,1.46,2.24,1.46.24,1.46-.5,1.46.35,1.46-2,1.45,1.54,1.46.67,1.46-1.39,1.46.22,1.46.06,1.46,0,1.46.27,1.46,1.13,1.46-3,1.92,2.8-.4,1.53.69,1.36-.61,1.15-2.24,1.66,1.66,1.31-1,1.66,1.74,1.11-2.61,1.47.23,1.5.43,1.59,1.2,1.27-1.35,1.39-.41,1.55.85,1.35-.67,1.28-1.32,1.51.57,1.58,1,1.13-2.47,1.45,0,1.32-1,1.46.07,1.45.09,1.51.54,1.53.7,1.54.74,1.18-2.11,1.29-1.28,1.4-.35,1.47.18,1.57,1,1.54.8,1.31-1.12,1.45,0,1.58,1,1.32-1,1.27-1.47,1.37-.6,1.75,2.45,1.13-2.56,1.59,1.13,1.24-1.67,1.56.92,1.46.17,1.24-1.68,1.57,1.08,2.2-.56.49,1.67-1.24,1.46,1.28,1.37-1.29,1.46,1.78,1.36-1,1.45.11,1.41-.52,1.44-.44,1.43-.44,1.43,2.29,1.34-1.56,1.47,1.18,1.38-2.4,1.5,1.91,1.35-.84,1.45,1.34,1.37-1,1.46-.31,1.43.93,1.39-.34,1.34-1.15.19-1.29,1.17-1.73-2-1,2.95-1.47-.06-1.43.18-1.59-1-1.46,0-1.32,1-1.49-.27-1.35.77-1.61-1.06-1.32,1-1.39.54-1.49-.25-1.43.27-1.35.76-1.53-.49L531,219.84l-1.21,1.86-1.52-.47-1.25,1.6-1.52-.46-1.32,1.09-1.51-.42L521,221.2l-1.44.16-1.19,2.06-1.68-1.64-1,3L514,223.48l-1.49-.24-1.5-.31-1.5-.25-1.38.6-1.38.58-1.22,1.84-1.42.31-1.67-1.55-1.47-.09-1.39.56-1.29,1.31-1.38.6-1.68-1.64-1.4.49-1.53-.53-1.46,0-1,3.21-1.61-1.16-1.44.19-1.33,1-1.44.11-1.58-.87L481,228.68l-1.71-1.9-1.11,2.62-1.51-.34-1.48-.18-1.57-.88-1.42.31L471,229.85l-1.61-1.21-1.13,2.6-1.47-.06-1.41.4-1.74-2.19L462.1,229l-1.05,3.14-1.47-.07L458,231h-1.46l-1.59-1-1.19,2-1.69-1.79-1.3,1.2-1.2,2-1.68-1.74-1.54-.66-1.38.53-1.37.72-1.14,2.31-1.52-.46-2.76.06.23-2,1.42-1.75.08-1.49,0-1.46-2.74-.94,2-1.86-.63-1.35.12-1.5-.08-1.45-1.34-1.22-.21-1.43-.79-1.32-.73-1.33,0-1.48-1.35-1.21,1.29-1.73-.28-1.42L433,208.16l-.38-1.4.46-1.57,2-1.87-.22-.92-.11-.93,1.54.54,1.36-1.31,1.68,2.07,1.25-2.42,1.61,1.36,1.47-.11,1.46-.23,1.57.82,1.36-1.27,1.49.06,1.46-.28,1.34-1.29,1.41-.67,1.58.79,1.46-.24,1.71,1.7.77-1.76.55-1.26.81-1.44-1.73-1.44.45-1.43,0-1.44,1.85-1.43-.94-1.44-.41-1.43-1.68-1.44.82-1.44-.38-1.44,1.54-1.43-1.4-1.44,1-1.44-.59-1.44,1.68-1.44L459.09,175l.49-1.44.7-1.44-.85-1.44-.2-1.43-.62-1.44,1.3-1.43,1.21-1.44-2.29-1.44-.39-1.43,3-1.44-1.79-1.43-.93-1.44.85-1.43,1.52-1.44-2.33-1.43L460,152l-.41-1.44v-1.43l.53-1.44-1-1.44,1.39-1.44-2.28-1.44,1.58-1.44.1-1.44,1.19-1.44.09-1.44-2.1-1.44,0-1.44.57-1.44-1.31-1.44L461,130.4l-.82-1.43.35-1.44-1.44-1.44-.63-1.44,1.92-1.43-1.68-1.44.76-1.44.66-1.44.61-1.44L459.68,116l.23-1.44-1.57-1.45,1.14-1.44-.13-1.44,1.4-1.44.13-1.44L459,105.94l.73-1.44,1.43-1.44.24-1.44-.91-1.44L460,98.74l-1.73-1.44,2-1.45-.81-1.44L458.6,93l-.32-1.44,1.77-1.44-.9-1.44,1.9-1.44-.41-1.44-2-1.44.23-1.45,2.58-1.44L459.72,80l-.41-1.44,1.85-1.44-.84-1.45.52-1.44-1.66-1.44,2.18-1.44L461,69.91l-.2-1.45-.7-1.44-.92-1.44,2-1.44-.05-1.44.17-1.44-1.36-1.43.28-1.44.89-1.45-2.8-1.44,1.52-1.44.53-1.44-.36-1.44-1-1.44,1.26-1.44-1.87-1.45,2-1.44L459.85,44l.09-1.45-1.2-1.44,1.57-1.44-1-1.45,1.83-1.44-1.41-1.44-.84-1.45.94-1.44.31-1.45-1.76-1.45.5-1.44,2.33-1.44L459,25.19l.39-1.44-.17-1.45.4-1.45-.19-1.44L458.92,18l.86-1.45-.56-1.45L459,12.83l2.22.93,1.43-1.36,1.43,2.47,1.43,0,1.43-.68,1.43-.45,1.43.73,1.43-2.27,1.43,2.12,1.44-.19,1.43.7,1.44-.45,1.43-1.52,1.44-.4,1.43,1.09,1.43,0,1.44-.29,1.43-.76L487,14.05l1.43.06L489.9,13l1.43-.56L492.76,14l1.43.82,1.43-2.72,1.43.54,1.43,1.69,1.43-.71,1.43,1.61,1.43-3.14h1.44l1.43,2.56,1.43.58,1.43-3,1.43,1.5,1.44-.22,1.43,1,1.44-2.29,1.44,2.93,1.43-1.67,1.44-.84,1.43.74,1.43-1,1.44,2.6,1.43-1.18,1.43.39,1.44,0,1.43-.81L530,14.69l1.43-1.38,1.44.33,1.43-.6,1.43,1.33,1.44-1.91,1.43,1.69,1.44,1,1.44-.3,1.43-2.36,1.44.32,1.43,2L547.23,13l1.43,2.21,1.44-2.16,1.43,2L553,13.85l1.44.36,1.43-.36,1.44-1.3,1.43,1.28,1.44-.85,1.44,1.66L563,13.19l1.43.47,1.44,1.56,1.43-1.84,1.44.08,1.43,1.34,1.44-.26,1.44-1.71,1.43-.44,1.44-.39,1.44,2.67,1.43-.63,1.44-1.37,1.43.06,1.44,2.47,1.44-1.06L586,14l1.43,1.2,1.44-1.38,1.44.33,1.43-1.81,1.44,2.25L594.61,12,596,14.31l1.43.57,1.44.1,1.44-1.17,1.44-.57,1.43-.35,1.44-.43,1.43,1.18,1.44-.13,1.44-.84,1.44,1.45,1.43,1,1.44-.73,1.44-2.06,1.44,1.47,1.44-1.29L619,14.94l1.44-.08,1.44.34,1.44-.71,1.44-1.8,1.44.11,1.45-.51,1.43,1.16,1.44-.23,1.44.54,1.44-1,1.44,0,1.45-.34,1.44-.32,1.44,1.43,1.45.91.55.06-.09.52.59,1.42-.84,1.43,2.72,1.43-1.14,1.43,1.09,1.43.13,1.42L642.71,25l.27,1.43-1.13,1.43,0,1.43-.47,1.43-.83,1.43,1.7,1.43L641.9,35l.49,1.43-1.16,1.43-.3,1.43L643,40.75l0,1.43-1.74,1.43,2,1.43-1,1.43-1.25,1.42,1.09,1.42-.42,1.43-.45,1.43.08,1.43L640.6,55l.15,1.43,2.81,1.42-2.4,1.43.3,1.43L643,62.17l-.58,1.43.23,1.43-.43,1.43.47,1.43.18,1.43-2.2,1.43,1.41,1.43,1.05,1.43L641.9,75l-.29,1.43.76,1.44-1.08,1.43-.12,1.43,0,1.43.33,1.43.15,1.43-.28,1.44,1.58,1.43-.16,1.43-.85,1.44-1.12,1.43,2.39,1.44-2.43,1.44.2.3-.27,2.29-1.42.15-1.42-1.12-1.42,1.16L635,95.72l-1.42.7-1.43.39-1.42.49-1.42-.81-1.43-.88-1.42-.09L625,96.76l-1.42-1.2-1.42,2-1.42.63-1.42-1.26-1.43.15-1.42-1-1.43,1.34-1.42,0-1.42-1.82-1.42,1.49-1.43-.41L608,97l-1.43-.37-1.42-.78-1.42-.57-1.43,2.47-1.43-2.66-1.42.23L598,97.45l-1.42-.23-1.43.53-1.43-1.89-1.42.93-1.43-.13-1.43-1.28L588,96.49,586.56,96l-1.43,1.41-1.42.23-1.43-1.51-1.43,1.8-1.43-.88-1.44.34-1,.34-.26.29,1.57,1.34-2.65,1.75,1.57,1.34,0,1.48,1.66,1.3-1.5,1.67.54,1.43-.41,1.55,2.24,1.19-.5,1.56-1.39,1.7-.24,1.54,2.86,1-2.06,1.85.73,1.38.57,1.69,1.53-.86,1.43,2.1,1.42-.89,1.43-1.68,1.43,2.59,1.43-1.8,1.43-.43,1.43,2.24,1.43-1.29,1.44,1,1.43-.3,1.43-1.87,1.42.82,1.43-.58,1.44,2.08,1.43-1.17,1.43,1.3,1.43-.51L607,122l1.43.2,1.43.65,1.43-2.09,1.42,2,1.43-.51,1.43-.78,1.43-.62,1.43-.79,1.43,2.59,1.43.31,1.43-1.14,1.43-1.18,1.43-.48,1.43,2.7,1.43-1.17,1.43,1.22L631.3,121l1.44-1,1.43,1.92,1.43.15,1.43.22,1.44,0,1.43.36,1.43-2.84,1.44,2,1.43.42,1.44.21,1.43-2.05,1.43,1.89,1.44-2.49,1.43.88,1.43.45,1.44.74,1.44,1.05,1.43-2.75,1.45,1.4,2.48-1.18-1.92,2.5.3,1.47,1.3,1.47-2,1.47-.34,1.47.52,1.47,0,1.48.75,1.47-.85,1.47,1.63,1.47,1.14,1.47-2.78,1.47,1.1,1.47-.7,1.48.17,1.47,1.61,1.48.13,1.47L658.92,148l.84,1.25-1.19-1.15-1.44,1.34-1.43-.54-1.43.5-1.43.57-1.44-1.68L650,151.1l-1.43-2.23-1.43.91-1.43-1.22-1.44,1.28-1.43-.48-1.43-.57-1.43.06-1.44-.55-1.43.84-1.43,1.05-1.42-1.5-1.43-.48-1.43.59-1.43-.48-1.44-.13-1.43,1.52-1.43.67-1.43.5-1.43-2.29-1.43,2.18-1.44-1.51-1.43.57-1.44.82-1.43.14-1.43-2-1.44,1.81-1.43-1.41-1.43-1-1.44,0L607,149.54l-1.43.57-1.44-.23-1.43.74-1.44-1.17-1.43.16-1.43-.14-1.44.92-1.44-1.65-1.43,1.93-1.44.41-1.44,0-1.44-2.38-1.26,1.48Zm-96-108.08-.85.87-1,1.43L492,45.88l-.53,1.43-1.08,1.44-.78,1.43.35,1.43L489.53,53l-.3,1.44,2.68,1.42-2.25,1.43,1,1.44L489.6,60.2l.15,1.43,1.39,1.44.64,1.43L491,65.94l.6,1.44-2.07,2.52L492,67.39l1.44,1.08,1.43,1.18,1.44-2.39L497.76,70,499.2,70l1.44-1.31,1.43,1.38,1.44-2.4L505,68.73l1.44-1.36,1.44.59,1.44.56,1.44.69,1.44-1.87,1.44,1.92,1.44-2,1.43,1.34,1.44.53,1.44.32,1.44-.34,1.44-1.84,1.43.61,1.44,1.71,1.44-1.43,1.44-.75,1.44,2.68,1.45-.08,1.44-2.4,1.44-.22,1.43,2.33,1.44-1,1.44-.86,1.44.76,1.44-1.23,1.44.41,1.44-.24,1.45,1.87,1.44.76,1.44-2.74L549.58,69l1.44.88,1.44-1,1.44-.58,1.44-.67,1.44.24,1.44,1,1.44,1.44,1.44-.54,1.44-1.57L564,69.45l1.44-1.75,1.44,1.15,1.44-.87,1.44,1,1.44-.08,1.44.56,1.44-.7,1.44.25,1.44.67L578.37,68l1.44-.84,1.45,1.22,1.44-.22,1.44.11,1.44,1.84L587,67.77l1.45.33,1.44-.62,1.44-.26,1.45,2.62,1.44-1.12,1.45-.65,1.44.25,1.44,1.09,1.44-.8,1.45,1.64h1.44l1.45-2.93L605.8,69l1.44-.73,1.45-.83,1.45,2.4.88-1.62,1.87-.86L610.79,66l1.14-1.43,1.22-1.43-.79-1.43.79-1.43-1-1.43-.88-1.44.06-1.43,1.07-1.43.73-1.43L611,51.64l.36-1.43,0-1.44,1.42-1.43-1-1.44-1.76-1.43L613.12,43l-1.83-1.14-1.14-.9-1.43,2.15-1.44-.61-1.44.54-1.43-1.68L603,42.47l-1.43-.6-1.44-1.72-1.44.76-1.44-.57-1.43,2.23-1.44-2.16-1.44,1.39L591.47,40l-1.44.7-1.44,1-1.44-.59-1.44-.53-1.44-.48-1.44,2.27-1.44-.49L580,41.75l-1.44-1.48-1.44,2.19-1.44.23-1.44-2.35-1.44,2.32-1.44.35-1.44-1.83-1.44,1.74L567,40.7l-1.44.88-1.44,1.08-1.44-2.37L561.24,43l-1.44-.3-1.44-2.54-1.44,2.38-1.44.09-1.44.09L552.6,42l-1.44-1.94-1.44,1.41-1.44-.8L546.83,42l-1.44-1.49L544,41.72l-1.44-1.14-1.44.05-1.43.44L538.2,42.3,536.76,42l-1.44-.65-1.44-1.22L532.44,40,531,42.1l-1.44.64-1.44-.81-1.44-1.19-1.44-.07L523.8,42.5l-1.44-.09-1.44-1-1.44-.46L518,43l-1.44-.84-1.44,1L513.71,41l-1.45,2.17-1.44-3-1.44.61-1.45,1.86-1.44-.24L505,41.64l-1.44.08-1.44-.59-1.45-1-1.44,2-1.45-2.05h-1.44l-1.45,1.62-1.45.16-1.32.23Zm57.17,78.61.34-.76.77-1.6-2.91-1.07.32-1.55.87-1.61.58-1.56-.54-1.42.25-1.51.12-1.5L545.26,107l2.08-1.72-1.16-1.36.9-1.58-.3-1.46-1.53-1.34-.77-1.42.94-1.23-1.32.62L542.65,95l-1.44,3-1.44-1.08-1.44-1.18-1.44,2.4-1.45-2.79-1.44.07-1.45,1.31-1.44-1.39-1.44,2.4-1.45-1.08L526.78,98l-1.44-.59-1.45-.57-1.45-.69L521,98l-1.45-1.93-1.44,2-1.45-1.34-1.45-.53-1.44-.32-1.45.34-1.45,1.85-1.44-.61L508,95.72l-1.45,1.44-1.45.74-1.44-2.67-1.45.07-1.45,2.4-1.45.22-1.45-2.32-1.45,1-1.45.86-1.45-.76L492,97.91l-.78-.69.51.79-1.87,1.47-.77,1.47,2.74,1.46-1.47,1.47-.88,1.47,1,1.47.58,1.46.66,1.46-.23,1.47-1,1.47-1.44,1.47.54,1.47,1.56,1.47L490,118.56,491.7,120l-1.14,1.5,1.47-.86,1.45,1,1.45-.08,1.44.56,1.45-.7,1.44.25,1.45.67,1.44-1.68,1.45-.84,1.44,1.22,1.46-.22,1.44.11,1.45,1.84,1.45-2.38,1.44.33,1.45-.62,1.45-.26,1.45,2.62,1.45-1.12,1.45-.65L521,121l1.45,1.09,1.45-.8,1.45,1.64h1.45l1.46-2.93,1.45,1.71,1.45-.73,1.45-.83,1.45,2.4,1.45-1.85,1.45,2.1,1.45-2.09,1.45,1.14,1.46,1.21,1.45-.78,1.45.79,1.46-1,1.38-.88Z"/><path class="cls-1" d="M899.19,115l-1.87.67-.44,1.37,1.87,2.42-1.46.93-1.48.92-1.55.86,1.9,2.51-1.89.7-.7,1.27-1.88.67.7,2-1.28,1-.23,1.51.31,1.82-1.07,1.07-1.11,1,.16,1.76h-2.91l1.5,2.54-.23,1.56-1.27.94-1.92.52.28,1.88-.54,1.38-1.09,1-2.07.37.94,2.37L879.1,150l.47,2.07-1.46.75-1.85.45-.5,1.41.54,2.2-2.67-.21,1.61,3.06-1.24.89-2.28,0-.65,1.33-1.31.79.81,2.57-1.81.37-.28,1.67-2.72-.47-.06,1.88-1.48.6-1,1.05.23,2.21-2.35-.25L860.4,174l1.23,1.12,1.23.74.95,1.17,2.12-.6,1,1.14,1.58.18.81,1.39.39,2.11,2.05-.61,1,1.13.54,1.95,2.45-1.4.31,2.38,1.37.49,1.12,1,2.27-1.24.26,2.64,1.27.68,2.25-1.29,1.54.1.46,2.36,2-1,.67,2,1.35.51,1.48.2.94,1.45.9,1.57,1.43.33,1.37.46,2.26-1.8.3,3.19,2-1.07.8,2,2-1.15.87,1.83,2.12-1.68.89,1.79,1.88-1,.79,2.16,1.9-1.21,1.23.85L914.8,200l1.4.32,1.66-.53,1.26.77.8,2.43,2.13-2.23,1.21,1,1.5-.08,1,1.71,1.73-1,1.12,1.42,1.41.28,1.3.76,1.2,1.2,1.9-1.83,1.09,1.69,1.28.92,1.54-.3,1.44.13,1.18,1.45,1.79-1.61,1.47-.05,1.21,1.37,1.23,1.27,1.92-2.5,1.32.79,1.23,1.34,1.3,1,1.48-.13.53,0-1-.26,1.1,2.9-2.69-.41-.12,1.77-1.75.45-.77,1.24.26,2-.32,1.54-1.52.67-.33,1.52-2.94-.28,1.69,2.9-1.72.57-1.8.55,1.28,2.54-3.18-.31-.71,1.28.4,1.93-2,.53,1.41,2.47-1.67.71.55,1.93-1.19,1L936.19,238l-1.47-.94-1.79,1.6-1-2.21-1.81,1.67L929,236.47l-1.29-.83-1.34-.62-1.48,0L923,236.56l-1.27-.93-1-2L919,234.67l-1.59.39-.72-3-1.4-.29-2,2-1.46-.16-.75-2.68-1.66.58-1.63.44-1.16-1.15-1.74.79-1.26-.82-1.45-.19-.79-2.27-1.13-1.18L898,229.34l-.88-1.89-1.07-1.32-1.7.52-1.55.08-1.59.14-1.27-.72-1-1.49-.8-1.89h-1.53l-1.93,1-.85-1.74-2,1.1-.87-1.64-1.67.25-.9-1.56-1.34-.51L876,218.5l-1.6.05-1.19-.85-1-1.23-2.05.91-1.68.12-.72-1.76-1.38-.47-1.22-.76-.37-2.34-2.43,1.45-1.09-1-1.57-.15-1.39-.5.12-3-1.82.25L855,209,854,208l-.62-1.72-1.65-.08L851.4,204l-1.19-.77L847.34,205l-.19-2.26-1.6-.21-1.67-.15.28-2.83-2.28.68.15-2.58-2.44.83-.41-1.8-.35-1.86-2.09-.44-2.11.34-.59,1.64-.65,1.57-1.23.77-1.8-.09-1.6.18v2.61l-1.41.49-1.19.8-2-.45-.69,1.59-.28,2.3-2.86-1.93-.2,2.45-1.78-.17-.13,2.63-1.57.18-1,1.2-2.11-.8-.72,1.67-1.57.14-2.09-.87-.91,1.36-1.54.14-.24,2.69-2.28-1.33-.65,1.91-2.1-1-1,1.27-.85,1.56-1.55.07-1.54.1-1.5.16-.36,2.71-1.52.12-1.39.43-1.92-.83-.44,2.63-1.25.78-2.24-1.68-.44,2.74-1.21.87-2-1.21-.7,2.19-2.16-1.6-1,1.34-1,1.54-2.19-1.77-.41,3.09-1.46.2-2.22-2-.56,2.78-1.34.56-1.34.55-1.6-.25-2-1.44-.92,1.81-1.62-.34-1,1.74-1.82-1-1,1.6-1.72-.71-1.36.45-1.25.84-1,1.6-1.49.06-1.57-.26-1.72-.83-1.4.32-.85,2.43-1.23,1-1.61-.44-1.7-.82-1.42.28L738,239.08l-1-1.76.3-1.73-.26-1.48-2.56-.17,0-1.64-1.57-.7,1.12-2.35h-2.63l1.81-2.86-1.31-.85-2.37-.12L729,224.1l-.17-1.61-.88-1.11-.33-1.51,0-1.73-2.48,0,.84-2.39-.86-1.14-2.18-.14-1-1-1.07-1-1-1-1.83-2.09,2.82.18,1.44-.19,1.17-1.46,1.56.39,1.2-1.28,1.59.52,1.29-.83,1.57.38,1.39-.36,1.52.15,1.1-1.63,1.52.19,1.28-.87,1.89,1.64,1.15-1.33,1.47-.08,1.29-.78,1.64.53,1-1.93,2,1.64,1.3-.72,1.51,0,1.2-1.07,1-1.56,1.37-.44,2,1.62,1.3-.72.94-1.8,1.54,0,1.81.9.73-2.4,1.07-1.34,1.62.28,2.05,1.49,1.49-.16.81-2,1-1.46,1.47-.16,1.33-.57,1.21-.84,2.33,1.94.83-1.82.94-1.5,1.29-.63,1.33-.56,1.09-1.08,1.32-.56,1.42-.33,1.28-.66,1.41-.37,2,.86.3-2.69,1.35-.51L794,187.1l1.33-.57.82-1.57.55-2,2.29,1.22,1.25-.73,1.49-.29,1-1.23.62-1.8,2,.55,0-2.82,2.1.69,1.38-.52,1.76.08-.2-3,2.1.59,1.61-.19.75-1.78-1.95-.47.46-2.28-.42-1.51-1.85-.35-1.35-.77-1.11-1,.22-2-.85-1.16-2.22-.14,1.11-2.6-3.43.69-.26-1.59,1-2.5-1.58-.65-1.63-.64.51-2.07-1.75-.58-1-1-1.43-.81,1.37-2.56-2.71,0-1-1.11-.32-1.51-1-1.07,1-2.26-2.09-.46-1.3-.93.54-2-.9-1.15-.74-1.25-.71-1.25-.92-1.16-1.69-.75,2.12-2.7-1.74-.74.17-1.69-1-1.11-2.54-.38,1.1-2.12-1.4-.94,1.19-2.14-2.88-.28-.21-1.5v-1.58l.73-1.89-1.68-.85-.82-1.12,1.64.63,1.22-.9,1-1.53,1.58.32,1.73.8.69-2.68,1.43-.19,1.14-1.19,1.44-.16,1.45-.15,1.58.31,1.62.45,1.63.5.8-2.32,1.05-1.5,1.31-.58,1.48-.06,1.72.75,1.66.56,1.09-1.35,1.39-.2-.74,1.71,1.32,1,1.8.82,1,1.15L810,114.45l2.83.31-.6,1.88,2,.65-.39,1.8.34,1.46,2,.58-.49,1.89,1.53.83,1,1.08-.45,1.9,1.82.63-.46,2,2.27.33-.14,1.77.82,1.2.28,1.53.38,1.5.39,1.49,2.72-.09-.53,2.12,1.79.52L826,142.43l2.4,0,.15,1.7,1.94.34,0,1.83.63,1.37,1.63.55.62,1.37,1.11,1,1.71.42-.72,2.6,2-1.32.1-.41,1-1.06,1.87-.28,1.13-1,.28-1.67,1.3-.81.46-1.5,1.93-.32.25-1.65.6-1.37,1.25-.88.79-1.23.37-1.52,1.42-.78,2.17-.29-.62-2.17,1.38-.85-.45-2,1.35-.87,0-1.72,1.29-.92,2.55-.2.76-1.27-1-2.22L860,125l-1.92-2.66,2.07-.57,1.06-1.1,1.1-1.1,1.05-1.13.23-1.51.25-1.5-1-2,.46-1.38,2.22-.66.83-1.25.17-1.5-.56-1.78,1-2.14,1.17,2.26,1.49.11,1.19,1.12,1.34.6,2.27-2.58,1,1.74,1.4.4,1.64-.39,1.38.49,1.09,1.46,1.66-.48.8,2.49,2.11-2,1.24.93,1.3.77,1.1,1.47,1.43.28,1.8-.94,1,1.79,2.1-2,1.33.65,1.52.21ZM817.25,74.69l-2,.16-.76,1.2,1.2,2.8-1.64.52-1.66.5-1.7.43,1.19,2.89-2,.18-1,1-2,.15.18,2.09-1.47.59L805,88.63l-.15,1.83-1.3.75-1.33.72L802,93.66l-2.81-.73.82,2.83-.6,1.44-1.45.59-2,0-.17,1.89-.84,1.21-1.3.73-2.09-.12.37,2.51-2.65-.75v2.12l-1.58.4-1.89,0-.79,1.27.07,2.27-2.57-.77,1,3.32-1.37.62-2.24-.42-.9,1.17-1.43.53.33,2.67-1.84,0-.58,1.59-2.59-.93-.37,1.84-1.56.34-1.14.87-.12,2.21-2.28-.6-.84,1.27-1.22.77-1.1.94-1.42.5-.19,2.19-1.41.5-.78,1.41-1.61.22-2.08-.49-.3,2.11-1.45.43-2-.38.15,2.82-2.26-.82-1.08,1-1.38.49-.8,2.75-.05-2.92-1-1.06-2.54.48-1.41-.6L743,131l-2.25.25,0-2.06-1.09-.93-1.32-.69-.38-1.67-.29-1.78-1.22-.8-1.12-.9-2.75.89.85-3.08-2.21.3,0-2.11-2.23.38-.16-2-2.57.82-.21-2-2.11.34V113.7l-2.69-.68,2.17-1.25,1.68.12,1.22-.76.8-1.55,1.44-.35,2.28,1.15-.08-3.08,1.56-.16,1-1.12,2,.46.52-1.91,1.8.19,1.19-.82,1.45-.39,1.7,0v-2.64l2,.39,1.55-.29.85-1.32,1.09-1,1.87.15.07-2.41,1-1.11,1.82.06,1.77,0-.51-3.1,1.47-.43h1.82l1.63-.25.91-1.18,1.41-.57,1.32-.67-.64-3,2.59.85.43-1.72,1.81-.12,1-1.07.13-2,.62-1.44,1.63-.35.63-1.43,2.82.88-1.07-3.19,1.8-.22,1.88-.16-.75-2.75,3.06.94,1-1.1v-2l2-.12L780,68.41l1.78-.35-.14-2,1.37-.71,1.35-.75,1.44-.7.69-2.89,1,2.45,2.07-1.33.84,1.8,1.15,1,1.23.82,1.47.21,2-1.24,1.12,1.11.71,2.16,1.88-.84,1.62-.19.36,3.08,1.37.46,2.24-1.77,1.43.31.48,2.75,1.71-.41,1.67-.29L812,72.38l1.81-.65,1.2.92,1.48.32Zm68-14.23L883.69,59l-1.44.14-1.45,2.67-1.44-.94-1.44-1-1.44-1L875,61.68,873.6,60.3l-1.44-.07-1.44-1.38-1.44,1.52-1.44-.69-1.44.49L865,61.3l-1.44-.42-1.44-.47-1.44,1-1.45-2.5-1.44,2.56-1.45.59-1.44-.6-1.45-1.35L852,61.34l-1.44.28-1.45-.36-1.44-1.51-1.45,2.08-1.44-2.33-1.44,1.55-1.44-.76-1.45-1.23-1.44.42-1.44,1.74L836.07,59l-1.44,3.12-1.45-.42-1.44-1.76-1.45.33-1.44-.51L827.4,62,826,60.85l-1.44.87-1.45-2.33-1.44,1.2-1.45-.69h-1.44l-1.45,1.67-1.44-1.85-1.45.51L813,60.11l-1.45.09-1.45-.42-1.44,1.65L807.16,61l-1.45.7L804.27,61l-1.45-1.59L801.37,61l-1.44-.46-1.45-1.4L797,61.5l-1.45-1.91-1.45.22-1.45-.32-1.44,2.13-1.45-2.21-1.45,0-1.44,2.14-1.45.58L784,60.19l-1.45,1.74-1.45-1.49-1.44.09-1.45.41L776.77,60l-1.44-1.09-1.44.24-1.44.1L771,61.74l-1.45-2.84-1.45,1.69L766.66,59l-1.45,1.74-1.44-1.41-1.45,2.27-1.45-1.38-1.45,1.58L758,60.06l-1.44,1.72-1.45-.43-1.45-.86-1.45.1-1.45,1-1.45-.38-1.45-2.09-1.45,2.7-1.45-.63-1.45.46L742,60.25l-1.45,1.36-1.45-1.1-1.45.08-1.45-.44-1.45-.89-1.45,2.2-1.46-1.4-1.45-.61-1.45.6-1.46.18-.43-.76-1.5-.43-.33-1.46,1.11-1.46,1-1.46L724.6,53.2l.54-1.47,1.11-1.46.79-1.46-.36-1.46.44-1.46.3-1.46L724.7,43,727,41.51l-1-1.46,1.08-1.47-.15-1.46-1.42-1.46-.65-1.47.84-1.47-.33-2.17,2.15,2.27,1.44-3,1.44,1.1,1.44,1.2,1.44-2.43,1.45,2.83,1.44-.06,1.44-1.34L739,32.51l1.45-2.44,1.44,1.1,1.44-1.39,1.44.6,1.45.57,1.44.71,1.44-1.91,1.44,1.95,1.45-2,1.44,1.37,1.44.54,1.45.32,1.44-.34,1.44-1.88,1.44.62,1.45,1.74,1.44-1.46,1.45-.75,1.44,2.72,1.44-.08,1.45-2.44,1.44-.23,1.44,2.37,1.43-1,1.44-.87,1.45.77L778,29.87l1.44.42,1.45-.25L782.3,32l1.44.77,1.44-2.78,1.44,1.5,1.45.89,1.44-1,1.45-.6L792.4,30l1.45.24,1.44,1,1.45,1.47,1.44-.55,1.45-1.59,1.44,1.28,1.45-1.78L804,31.28l1.44-.88,1.45,1.06,1.45-.08,1.44.57,1.45-.71,1.44.26,1.45.67,1.45-1.71,1.45-.85,1.45,1.24,1.45-.22,1.09.26,1.72-1.1-2.42-1.46.34-1.46L820,25.41,819.73,24l2.66-1.46L821.25,21l-.67-1.46.26-1.46L822,16.64l-.82-1.46,1.68-1.45,0-1.47-3-1.46,1.74-1.46-.74-1.47L820,6.41l2.44-1.47-1.88-1.46,1.75-.54.53-1.74,1.46,1.16,1.46,1.23,1.47-.8,1.46.8,1.46-1,1.47-.9,1.46.07,1.46,1.08,1.47.75,1.46-2.17,1.46.36,1.47,0,1.46,1.45,1.47-1L844.76.45l1.47,3.11,1.46-2,1.47,1L850.63.43l2.15.9.83,2.14L851.9,4.93,853,6.39l-.62,1.46-1.75,1.46.77,1.46-.58,1.46,2.27,1.46-2.2,1.46,1.42,1.47-1.82,1.46.71,1.45,1,1.47-.6,1.46-.54,1.46-.49,1.47,2.31,1.46-.49,1.47-.17,1.46-1.13,2.42,2.4-1.83,1.44-.24,1.44,2.39,1.44-2.35,1.43-.36,1.44,1.86,1.44-1.78,1.44,2.26,1.44-.89,1.44-1.1,1.44,2.41,1.44-2.75,1.44.3,1.44,2.59,1.44-2.43,1.44-.09,1.44-.09,1.44.74,1.44,2,1.44-1.43,1.44.81,1.44-1.37,1.44,1.52,1.44-1.22,1.44,1.15,1.44,0,1.44-.45,1.44-1.25,1.45.35,1.44.67,1.44,1.24,1.44.06,1.43-2.12,1.44-.65,1.43.83,1.44,1.2,1.44.08,1.45-1.86,1.44.09,1.44,1,1.43.47,1.44-2.12,1.44.85,1.44-1,1.45,2.18,1.44-2.21,1.44,3.05,1.44-.63,1.44-1.89,1.45.25,1.44.77,1.44-.09,1.45.6,1.44,1,1.44-2,1.45,2.08h1.44l1.44-1.64,1.44-.16,1.45-.25,1.44-.08,1.45-.89,1.45,1.39,1.44.09L945.76,30l1.45.69,2.55-.55-.39,2.55.53,1.46-.71,1.46,0,1.46-.48,1.46L950.08,40l-.53,1.46.54,1.46-2,1.46,1,1.46-.29,1.46.43,1.46-.92,1.46,1.6,1.46-2.08,1.47.33,1.46-.43,1.46.69,1.47L949.58,59l-.24,2.13-2.12-1.83-1.44.3-1.44,1.42-1.44-.51-1.44-1.4-1.44,2-1.45.92-1.44-.79-1.43-2.08-1.44-.34-1.43,1.6-1.44,1L930,61.13l-1.45,0-1.44.35-1.44-2.65-1.43,1.37-1.44,1-1.44.08h-1.45l-1.44.55-1.44,0-1.44-.29-1.44.08-1.45-.26-1.44-1.62-1.44,2.27-1.44-.13-1.45-2.51-1.44-.1-1.45,1-1.44,1.54-1.45-2.15-1.44,0-1.44-.47-1.44.59-1.45,1.24-1.44-1.49-1.45,2.42L891,60.37l-1.44-.28-1.46-1-1.16,2.54.65.06.78,1.42,1.73,0,1.9-.2.16,2.31L893,66.6l1.88-.16,1.51.37,1.34.61.38,2,1.16.86,2.16-.52-.24,2.81,3-1.71.76,1.43L904.77,75l1.71.12,1.75.07.24,2.12,1.84,0,1.33.64,1.63.26L912.91,81l2.53-.93,1.31.7.84,1.29,1.37.61-.08,2.48,2.11-.34,1.56.38.27,2,1.27.73,1.17.87,1.16.88,1.3.71,1.86,0-.85,3.31h1.9l.53,1.62,1.39.6,2.48-.66-.13,2.39,1.66.3-.21,2.43,2.74-.9.8,1.29.66,1.44.12,2,1.87.11,1.22.83.32,1.76,1.38.64,1.86.19.48,1.57.11,1.9,2.71-.57.82,1.22,1.7,2.32-1.63,1-1.33.68-1.61.32-1.7.19-1.74.15,0,2.47-.46,1.79-1.06,1-1.38.61-1.9,0-1.77.1-.56,1.67-1.29.73-1.91-.07-.66,1.55-.35,2-.9,1.24-2.8-1.23.32,2.83-2-.15-.23,2.11h-1.86l-1.29.58-1.72-.06.08-1.93-1.65-.48-1.24-.83,0-1.94-1.9-.22,0-2-2.27.17-.25-1.75-1.05-1-.6-1.43-.68-1.37-.69-1.37-2.62.64.08-2.18-1.84-.16.65-2.81-2.35.4-.46-1.64h-2l-.33-1.8-.84-1.23-1.68-.29-.81-1.26-1.23-.8-1.74-.19.38-2.66-2.94,1.2-.92-1.14-1.1-.94-.33-1.85-1-1.1-1.67-.25-.81-1.29-1.49-.47-.3-1.92-1.64-.28L884.91,97l-.84-1.27-1.18-.85-1.49-.45-.7-1.45-.14-2.17-2.19.44-.73-1.44-2,.26-.73-1.43-1.71-.15-.77-1.39.12-2.55-1.14-.91-2.32.66,0-2.38-2.91,1.46-.22-2.12L865,80l-.86-1.27-.89-1.23-1.14,1,.63-.87.14-2.19,1.07-.93,2.19.62,1.31-.59.92-1.14.46-1.76.89-1.17,2.24.7,1-1.07,1.58-.23,1.26-.66-.68-3.33,1.95.29,1.14-.83.66-1.5,1.2-.76,1.78,0,.61-1.56,2.39.91Z"/><path class="cls-1" d="M1054,119.89l-.47-1-.83-1.25-1-1-1.62-.25-.69-1.47-2.41.9-.25-2.11-1.15-.85-1.32-.6-1.76.09-1.63-.08.49-3.44-2.82,1.86-1.27-.64-.33-2.2-1.84.31-1-1.06-1.09-1-1.06-1-1.9.5-1.29-.59-.53-2-.6-1.9-1.33-.55-2.53,1.75-.82-1.5-.84-1.52-.81-1.58-2.53,1.9-.67-1.89-1.26-.68-.7-1.88-2,.79-1-1.23-1.51-.13-1.77.48-1.34-1.43,1.28-1V90.88l2.91.29-1.29-2.68.35-1.53,1.33-.83,2-.38-.19-1.9.6-1.35,1.14-1,2.08-.29-.89-2.4,2.77.19-.45-2.1,1.47-.73,1.86-.46.48-1.43-.6-2.21,2.41.45.92-2.26,1.2.9.7,2.17,1.45.2,1.13,1,2.17-1.61.88,1.6,1.66-.27.39,2.73,1.78-.56,1,1.2,1.29.58,2-1,.52,2.31,1.51.12,1.24.71,1.32.52,1.1,1,2-.88,1.09,1,1.59,0,.93,1.33.5,2.09,2-.73,1,1.1.54,1.94,2.46-1.42.24,2.39,1.33.54,1,1,2.37-1.07,0,2.67,1.14.81,2.42-1,1.52.39-.06,2.42,2.68,1.09-2.25.72-.74,1.24-.47,1.42-1.61.64-1.73.56-.61,1.33-.73,1.25,1.27,2.62-3.19-.45.6,2.16-2.12.29.65,2.2-2,.36,1.1,2.51-2,.39.51,2.1-2.32.16.64,2.19-1.18.94-1.55.7ZM1083.42,154l-.71.82-1,1.11-.75,1.22.09,1.63-1.31,1,1.31,2.22-2,.61-.67,1.27-.41,1.39.31,1.75.1,1.64-3.48-.1,2.13,2.64-.53,1.35-2.17.53.44,1.82-1,1.11-.9,1.16-1,1.13.58,1.89-.55,1.33-2,.61-1.89.65-.52,1.35,1.77,2.51-1.5.85-1.52.84-1.59.81,1.86,2.56-1.91.64-.72,1.25-1.91.64.71,2-1.28,1-.22,1.51.35,1.81-1,1.07-1.09,1.06.23,1.75-2.93.08,1.63,2.49-.15,1.56-1.21,1-1.89.63.42,1.86-.43,1.4-1,1.1-2,.53,1.17,2.28-2.77.13.7,2-1.38.89-1.79.66-.31,1.47.85,2.11-2.7.15,2.07,2.8-1.08,1.05-2.26.37-.41,1.42-1.16,1,1.29,2.38-2.13.83-1.81-.17.19-2.78-1.9.15-.78-1.42-1.19-.86-2.17.54-.1-2.38-1.49-.43-1.13-.94-1.24-.77-.94-1.2-2.17.53-.94-1.19-1.6-.28-.76-1.46-.25-2.16-2.12.45-.92-1.23-.37-2-2.62,1.15-.07-2.44-1.17-.52,1.09-.22-1-2.39h2.67l.8-1.2-1.07-2.38.27-1.52,2.41-.19-.75-2.15,2.05-.43.67-1.27.4-1.44,1.57-.73,1.69-.66.53-1.36.66-1.29-1.43-2.53,3.21.23-.74-2.11,2.09-.44-.8-2.15,2-.51-1.28-2.42,1.94-.53-.68-2.05,2.29-.34-.81-2.12,1.09-1,1.48-.82.62-1.3-.17-1.75,1-1.06,2.56-.22-1.7-2.6,1.26-1,.29-1.49,1.93-.58-.53-1.93,1.68-.73.62-1.3,1.08-1,1.48-.84-1.28-2.33,1.94-.6,1.23-1,.13-1.57.52-1.36,1.74-.72-1-2.19.37-1.43,1.67-.76,1.58-.81L1052,150l1.15-1,1.66-.77,1.38-.92.33-1.46,1-1.09.93-1.16-1.84-2.53,2.74-.26-.29-1.76,1.63-.8.5-1.37.06-2.22,1.72.52.59,1.59,1.53.45-.52,2.94,3.08-1.43.42,1.79.36,1.88,2.7-1-.7,3.16,1.17.88,2-.12.22,2,2.72-1,.42,1.8,2-.16.75,1.41.77,1.38.68,1.49,2.54-.4ZM1067.65,52.57l-.45-1-.81-1.3-1-1.07-1.63-.33-.68-1.51-2.46.81-.22-2.13-1.15-.9-1.33-.66-1.79,0-1.66-.14.54-3.44-2.89,1.77-1.28-.68-.32-2.22-1.86.25-1-1.09-1.1-1-1.07-1-1.94.45-1.31-.63-.53-2-.61-1.93-1.36-.58-2.57,1.71-.84-1.52-.85-1.54-.83-1.6L1032,31.08l-.69-1.91-1.29-.69-.72-1.9-2,.78-1-1.24-1.53-.14-2.26-.51,1.34-1.17,1.24-.9,0-1.78,2.92.32-1.24-2.71.38-1.54,1.35-.82,2-.36-.15-1.92.63-1.35,1.16-1,2.1-.28-.84-2.43,2.77.22-.41-2.12,1.49-.72,1.87-.45.52-1.44-.41-2.37,1.21,2.55L1043,2.85l1.18,1L1044.8,6l1.46.27,1.11,1.06,2.26-1.5.84,1.65,1.69-.19.3,2.76,1.83-.48,1,1.26,1.3.65,2.05-.87.45,2.34,1.52.2,1.23.77,1.33.59,1.07,1.07,2.08-.79,1.07,1.08,1.61.1.89,1.38.44,2.12,2.06-.64,1,1.15.49,2,2.53-1.31.17,2.41,1.33.61,1,1.07,2.43-1-.13,2.67,1.13.88,2.48-.85,2,2.22-2.64.5.63,2.19-2.07.31L1082,33l-.49,1.41-1.61.62-1.74.54-.62,1.32-.75,1.23,1.25,2.63-3.19-.49.58,2.16-2.12.27.62,2.2-2,.35L1073,47.7l-2,.37.49,2.1-2.32.14.48,2.35Zm36.13,71.52,1.1.2,1.41.43,1.42.16,1.42-.78,1.42.77,1.42-2.14,1.42,1.57,1.42,0,1.42-.23,1.41-1,1.42-.81,1.42,3.17,1.42-3.07,1.42-.12,1.42,1.72,1.42-1.2,1.42.4,1.43.29,1.4.34,1.34,1.41.11,1.44-1.53,1.44-1.39,1.43.14,1.44,2.72,1.44-1,1.44-1,1.43-1,1.43,2.82,1.44-1.41,1.44-.07,1.44-1.4,1.44,1.54,1.44-.69,1.44.49,1.45,1.16,1.44-.44,1.43-.49,1.43,1,1.45-2.58,1.38,2.56,1.5.55,1.46-.66,1.42-1.45,1.37,1.17,1.5.19,1.46-.47,1.41-1.65,1.31,2,1.62-2.5,1.19,1.41,1.6-.94,1.34-1.43,1.25.22,1.47,1.53,1.68-2.49,1,2.87,2-.7,1.35-2,1.06,0,1.47-.83,1.27,1.89,2-1.48,1.11.48,1.63-2.68.73.76,1.73L1124,192l-.46,1.35,1.12,1.92-2.26.71,0,1.52-.64,1.29-.46,1.35-1,1.14.93,2-1,1.13V206l-1.34.94-2.09.5.7,2-1.13,1-2,.49,1.32,2.51-2.41.15-.61,1.31-1.08,1,.92,2.44-2.66-.19-.89,1.1.81,2.48-.48,1.51-2.42-.17.37,2.26-2.09,0-.92,1.11-.7,1.33-1.7.33-1.79.2-.86,1.15-1,1,.6,2.85-3-1.25v2.23l-2.1-.33,0,2.28-1.16-.49-1.94.66.23-2-2.16-.07.42-2.28-2.27.12-.67-1.34-.39-1.65-1.1-.94-1.74-.27-.79-1.27.35-2.56-2.91,1.11-.67-1.43-1.41-.56-.25-2-2,.2-.48-1.76-1.22-.79-.94-1.19-.16-.5-.67-1.64,2,.28,1.53-.4.75-1.39,1-1.06,1.89,0-.22-2.42.82-1.22,1.82-.18,1.76-.29-1-3,1.37-.67,1.79-.32,1.56-.57.64-1.36,1.26-.87,1.13-1-1.41-2.8,2.74.15-.07-1.79,1.71-.63.62-1.33-.53-2,.11-1.57,1.41-.87.07-1.55,3-.2-2.22-2.56,1.58-.88,1.67-.89-1.82-2.21,3.2-.4.4-1.41-.87-1.79,1.78-1-2-2,1.43-1.11-1-1.71.89-1.26.85-1.29,1-1.29-1.68-1.73,2.18-1.12-1.81-1.69,1.55-1.25.7-1.38.47-1.41-.24-1.47-1.8-1.56.71-1.39,1.84-1.35-1.43-1.5-.73-1.45,2.79-1.39-.06-1.44-2.48-1.44-.23-1.46,2.41-1.47-1-1.46-.89-1.46.78-1.47-1.27-1.46.42-1.47-.24-1.46,1.93-1.46.8-1.47-2.84-1.46,1.52-1.47.92-1.46-1.07-1.47-.6-1.54Zm41.59-91.26.2-1.74.43-1.43.16-1.42-.78-1.43.77-1.43L1144,24l1.57-1.42.05-1.43-.23-1.43-1-1.43-.81-1.43,3.17-1.42L1143.65,14l-.12-1.43,1.72-1.43-1.2-1.42.4-1.44.29-1.43.36-1.43L1143.74,4l.31-2.45,2.45,1.11L1148,4l1.46-.13,1.45-2.72,1.45,1,1.45,1,1.45,1,1.45-2.81,1.45,1.41,1.46.06L1161,4.19l1.45-1.55,1.45.7,1.45-.5,1.45-1.15,1.46.43,1.45.48,1.46-1,1.45,2.55,1.46-2.6,2.57-.15-.13,2.56-1.38,1.42,1.25,1.43.29,1.43-.37,1.42-1.53,1.43,2.11,1.43-2.37,1.43,1.59,1.43-.78,1.42-1.25,1.43.43,1.43,1.77,1.42L1174,22.49l3.17,1.43-.43,1.43L1175,26.78l.33,1.43-.52,1.43,2.29,1.44-1.25,1.18,1.17-1,1.42,2.37,1.43-1.22,1.42.7h1.43l1.42-1.7,1.43,1.88,1.42-.51,1.43.11,1.42-.1,1.43.44,1.43-1.69,1.42.43,1.42-.71,1.42.76,1.42,1.61,1.43-1.6,1.42.47,1.43,1.43,1.42-2.46,1.43,1.95,1.42-.23,1.43.33,1.42-2.17,1.43,2.25,1.43,0,1.42-2.18,1.43-.59,1.43,1.95,1.42-1.77,1.43,1.51,1.43-.09,1.43-.42,1.43,1,1.43,1.11,1.42-.25,1.43-.1,1.43-2.53,1.43,2.88,1.43-1.71L1234,34l1.44-1.78,1.43,1.44,1.43-2.32,1.43,1.42,1.44-1.61,1.12,1.68,1.62,1.09-.44,1.4-.87,1.41.1,1.4,1,1.41-.39,1.4-2.13,1.41,2.75,1.4-.65,1.41.48,1.4L1242.37,48l1.39,1.4-1.12,1.41.07,1.41-.44,1.41-.9,1.4,2.23,1.41-1.42,1.41-.31.65-.68.31-1.43.18-1.43-1.2-1.43,2-1.43.34L1234,58.92l-1.44-1-1.43,2.82-1.43-.55L1228.31,59l-1.43-.81-1.44.36-1.43-.44-1.43-.31-1.43,2.78-1.43-2.34-1.44,1-1.43-1.1-1.43.16L1214,59.82l-1.43.66-1.44-.85-1.42.62-1.43-2.6-1.43,3.06-1.43-1.12L1204,58.37l-1.43,2.48L1201.11,58l-1.43.06-1.43,1.36L1196.82,58l-1.43,2.48L1194,59.32l-1.44,1.42-1.43-.62-1.43-.58-1.43-.71-1.44,1.94-1.43-2-1.44,2-1.43-1.39-1.44-.54-1.43-.33-1.44.35-1.43,1.91-1.44-.63-1.43-1.78-1.43,1.49-1.44.77-1.44-2.77-1.43.07-1.44,2.49-1.44.23-1.44-2.41-1.44,1-1.22.86-.78.42.45,1.85-1,1.05-.47,1.36-2.38.32-1.37.86,1.8,2.61-2,.51-1.48.8.24,1.75-.17,1.54-.09,1.58-.91,1.12-1.62.72-2,.51-.2,1.51.71,2-1.83.59.88,2.12-1.74.65.08,1.68-1.63.69-.62,1.39,1.56.62,1.43-.75,1.44.23,1.46.66,1.41-1.77,1.42-.9,1.47,1.23,1.43-.26,1.44.07,1.49,1.88,1.38-2.51,1.45.31,1.42-.69,1.44-.3,1.52,2.67,1.41-1.21,1.42-.72,1.45.21,1.48,1.08,1.42-.88,1.5,1.65,1.45-.07,1.33-3.08,1.52,1.71,1.41-.8,1.42-.92,1.54,2.43,1.37-2,1.54,2.11,1.36-2.23,1.5,1.12,1.5,1.19,2.11-1.36-.53-2.45-1.69-.34-1.64-.41-.91-1.09-.15-1.79-.41-1.56-2.58.47-.69-1.29-1-1,.09-2-1.7-.34L1180,75l1.3-1-.07-2.16L1183,72l.23-2.65,1.59-.13,1-1.18,2.11.85.76-1.68,1.58-.13,2.12.88.92-1.37,1.57-.17.2-2.73,2.34,1.3.61-2,2.16,1,1-1.33.8-1.62,1.46-.11.23,1.27.68,1.34,2.66-.69.66,1.37.9,1.13-.08,2.09,2.62-.58,1.17.86-.75,2.72,2.72-.64,1.25.79-.39,2.34,2.3-.19-.71,2.61,1.64.44,1.79.3-.85,2.7,3-.8.72,1.28-1,2.81,2.8-.55,1,1,1,1,.36,1.58-.61,2.39,2,.16.27,1.63,2,.23-.31,2.08,1.87.35-.05,1.85.91,1.1,1.24.85,1.87.38.57,1.36.3,1.56L1237,101l.78,1.19,2.58,0,1.36.81.09,1.67-.25,1.86.69,1.24,2.37.23.66,1.28-.22,1.78.27,1.47,2.34,1.94-2,.19-.79,1.56-2.31-1.27-.19,2.65-2.73-2-1,1.24-.34,2.38-1.39.46h-1.62l-1.22.76-1.55.14-1.72-.19-.29,2.49-2.27-1.18-1.26.68-.47,2.15-1.18.83-1.14.91L1223,127l-1.31,1.64-1-2.79-.53-1.33-1.71-.74,0-1.58-1.57-.75,0-1.65-1.18-1-.13-1.59-.8-1.19-.36-1.47-1.91-.45-.36-1.48-.7-.39-.83-1.83-1.37,1.1-1.46-.2-1.4.52-1.49-.84-1.34,1.7-1.56-2-1.42.42-1.46-.35-1.39.78-1.37,1.3-1.43.11-1.57-2.07-1.41.39-1.36,1.53-1.47-.44-1.51-1.34-1.32,2.14-1.39,1-1.48-.72-1.56-2-1.45-.27-1.35,1.7-1.39,1.11-1.46-.29-1.43.13-1.42.43-1.58-2.61-1.37,1.46-1.38,1.12-1.44.15-1.44.07-1.41.64-1.44,0-1.45-.21-1.44.15-1.45-.2-1.52-1.57-1.33,2.38-1.44-.06-1.57-2.48-1.44,0-1.39,1.1-1.36,1.64-1.55-2.12-1.44.12-1.46-.41-1.41.67-1.38,1.33-1.51-1.44-1.32,2.53-1.52-1.64-1.45-.22-1.49-.95-1.31,2.69-1.51-1.59-1.48-.68-1.39,1-1.38,1.33-1.52-1.76-1.46-.58-1.38,1.29-1.41.64-1.42.36-1.5-1.35-1.44,0-1.36,1.78-1.55-2.39-1.29,3.28-1.47-.66-1.54-2.24-1.4,1-1.39,1.07-1.5-1.52-1.39,1.22-1.41.36-1.4.84-1.55-2.48-1.33,2.38-1.42.31-1.46-.45-1.41.42-1.53-2-1.35,1.66-1.39.76-1.38-1.31-.37-1.33-.21-1.39-.19-1.4-.43-1.36-1.32-1.28,3-1.73-1.38-1.27.75-1.49-.59-1.36-2.29-1.16,1.76-1.61-1-1.3,1.84-1.61-2.68-1.13.27-1.44.48-1.47,1.28-1.56L1086.21,92l-.39-1.38.89-1.13.3.36,1.41-1.23,1.45.75,1.46,1.24,1.39-2.42,1.44.2,1.42-.84,1.44.24,1.44.25,1.44.74,1.45.88,1.46.94,1.4-2,1.42-1.18,1.43-.2,1.45.34,1.45,1.21,1.47,1,1.42-1,1.54.16,1.8-.86-.14-1.67-.61-1.89.22-1.51,3.09-.18-1.65-2.35,1.84-.77-.83-2,1.64-.86.92-1.19-.86-2,1.79-.82-.32-1.72.2-1.5,1.79-.83-.63-1.84,1.83-.83-1.14-2,1.51-1,.46-1.38,1.06-1.16.7-1.79-1.58-.53-1.43,2.33-1.42-1.67-1.43,1.17-1.42-2.53-1.43,1.93-1.42-.93-1.43,1.35-1.43-1.13-1.43-.37-1.42.91-1.43-.41-1.43.21-1.43,1-1.42-2.3-1.43,2.88-1.43-.27-1.43,0-1.43-1.21-1.43-.23-1.43.89-1.43-.49-1.43.6-1.43-1.32-1.43.84-1.43.36-1.43-.48-1.43.09-1.44.58-1.52-.75,1.61-1.49-1.74-1.4.7-1.41-1.48-1.4.69-1.41-.94-1.4.64-1.41,2.13-1.4,0-1.41-1.95-1.4,1.91-1.41-3-1.4,1.6-1.41.46-1.41.51-1.41.47-1.4-.43-1.41-.4-1.42-1.43-2.1,2.13-.41,1.45,1.83,1.45.29,1.45-.38L1091.3,32l1.45-.43,1.46,1.92,1.44-.31,1.45.75,1.44.21L1100,31l1.45,1.4h1.46l1.45-.84,1.45.09,1.45,1.1,1.45-.92,1.45,2.19,1.45-2.55,1.45.56,1.45.39L1116,33.5l1.46-.13,1.45-1.41,1.45,1.46,1.46-2.52,1.45.26,1.45-.22,1.46,2.48,1.45.57,1.46-3.07,1.45.26,1.45,1.38,1.46.21,1.45,1.22,1.46-1.87,1.45,2.06,1.46-1,1.45-1.9,1.46,2,1.3.88Zm0,93.53,1.14.2,1.45.43,1.46.15,1.45-.77,1.46.76,1.46-2.14,1.45,1.58,1.46.05,1.45-.23,1.45-1,1.46-.81,1.46,3.17,1.45-3.07,1.46-.12,1.46,1.72,1.46-1.2,1.46.4,1.68.38-.26,1.66,1.36,1.44.11,1.44-1.52,1.44-1.4,1.44.14,1.43,2.72,1.44-1,1.44-1,1.44-1,1.43,2.82,1.44-1.41,1.44-.07,1.44-1.4,1.44,1.55,1.44-.7,1.44.5,1.44,1.15,1.44-.44,1.44-.47,1.44,1,1.44-2.54,1.44,2.6,1.44.6,1.44-.61,1.44-1.37,1.44,1.25,1.44.29,1.44-.37,1.44-1.54,1.44,2.12,1.44-2.37,1.44,1.58,1.44-.78,1.44-1.25,1.44.43,1.43,1.77,1.44-2.29,1.43,3.18,1.44-.44,1.44-1.78,1.44.33,1.45-.52,1.43,2.3,1.44-1.15,1.44.88,1.44-2.37,1.44,1.22,1.44-.7,1.44V198l1.7,1.44-1.89,1.45.52,1.44-.11,1.44.09,1.44-.43,1.45,1.68,1.44-.42,1.44.71,1.45-.76,1.44-1.61,1.44,1.6,1.44-.47,1.45-1.43,1.44,2.45,1.45-1.94,1.44.23,1.45-.33,1.45,2.17,1.45-1.92.67-.68-.36-1.45,2.18-1.46.59-1.45-2-1.46,1.77-1.46-1.51-1.45.09-1.46.42-1.45-1-1.45-1.11-1.46.25-1.46.09-1.45,2.54-1.46-2.89-1.46,1.72L1148,225.4l-1.46,1.78-.66-1.11-2-.62,1.41-1.44-1.61-1.44,1.82-1.44-1.76-1.44.44-1.43.87-1.44-.1-1.44-1-1.44.39-1.43,2.13-1.44-2.75-1.44.64-1.44-.47-1.44,1.41-1.44-1.39-1.44,1.12-1.44L1145,201l.45-1.44.9-1.44-2.23-1.44,1.42-1.44.63-1.44-.62-1.44-.18-1.44,1.2-1.44-2-1.44-.34-1.44,1.13-1.44,1-1.44-2.83-1.44.55-1.44,1.12-1.44.82-1.44-.37-1.44.44-1.43.31-1.44-2.77-1.43,2.33-1.44-1-1.44,1.1-1.44-.15-1.44-1.45-1.44-.66-1.44.85-1.44-.62-1.44,2.61-1.44-3.07-1.44,1.12-1.44,1.22-1.44-2.48-1.44,2.89-1.45-.07-1.44-1.36-1.44,1.43-1.44-2.48-1.45,1.12-1.44-1.41-1.44.61-1.45.58-1.44.72-1.44-1.94-1.44,2-1.45-2-1.44,1.39-1.45.55-1.44.33-1.45-.35-1.45-1.9-1.63Zm76.33,84.33,1.87-.14,2-.56,1.29-1.36-.24-1.71,1.05-1.26-1.88-1.73,1.74-1.19.14-1.43-.17-1.42-1-1.45-.75-1.43,3.19-1.3-3-1.5-.07-1.41,1.74-1.36-1.15-1.44.44-1.4.32-1.4.39-1.4-1.32-1.44-.07-1.42,1.55-1.37,1.42-1.39-.88-.23,1.38-1.37.56,1.61.61,1.63.64,1.69,2.73-1.58.49,1.94,1.22.79.6,1.94,2-.67,1,1.28,1.53.19,1.79-.44,1.14,1,1.16,1,1.7-.44-.28,2.26,2.24.54.53,1.45-.68,1.38-1.45,1.34,1.16,1.49.2,1.43-.46,1.39-1.62,1.31,2,1.57-2.46,1.22,1.45,1.54-.9,1.34L1245.2,208l.28,1.45,1.59,1.6-2.43,1.11,2.93,1.84-.64,1.36-2,1.09,0,1.43-.83,1.2,1.68,2.11-1.61,1,.17,1.73-2.76.13.26,1.84-1.42.69-.94,1,.06,2.22-2.29-.58-.88,1.21-1.28.56-1.27.64-1.47.06-.92,2-1.52-.07-1.31,1-1.58-.51-1.6-1.42-1.3,1.69-1.47-.43-1.42-1.42-1.43,2.44-1.42-1.93-1.43.22-1.43-.33-1.43,2.16-1.43-2.23-1.43,0-1.43,2.16-1.52.55-1.32-2-1.68,1.56-1.19-1.74-1.42-.24h-1.51l-1-1.37-.86-1.54-1.32-.37-1.22-.58-2.59,1.31.63-3.14-2.16.33.21-2.09-2.25-.06.49-1.95-2.71-.32.78-1.9-2-1,1.41-1.87-2-1.11.2-1.55.68-1.57-.25-1.45-1.11-1.39.3-1.49,2-1.56-2.79-1.36.6-1.49-.49-1.46,1.38-1.49-1.38-1.47,1.11-1.43-.08-1.43.45-1.43.89-1.43-2.22-1.43,1.42-1.43.62-1.44-.62-1.43-.17-1.43,1.19-1.43-1.94-1.43-.34-1.44,1.13-1.43,1-1.43-2.81-1.43.55-1.44,1.11-1.43.81-1.43-.37-1.43.45-1.43.3-1.43-2.76-1.43,2.32-1.43-1-1.43,1.09-1.43-.15-1.43-1.43-1.44-.66-1.43.85-1.43-.63-1.43,2.6-1.43-3-1.44,1.11-1.43,1.21-1.43-2.46-1.43,2.87-1.44-.07-1.43-1.35-1.44,1.42-1.43-2.46-1.44,1.11-1.43-1.41-1.44.61-1.43.58-1.44.71-1.43-1.93-1.44,2-1.43-2-1.44,1.38-1.43.54-1.44.33-1.44-.35-1.44-1.9-1.44.9-2.09,2.09,1.5,1.44-1.48,1.45-.77,1.44,2.75,1.45-.07,1.44-2.47,1.45-.23,1.44,2.39,1.45-1,1.44-.89,1.45.78,1.44-1.26,1.45.42,1.45-.25,1.44,1.93,1.45.78,1.45-2.82,1.45,1.52.68.59.74.67.6,1.44.68,1.45-.24,1.44-1.05,1.45-1.48,1.45.56,1.44,1.61,1.45-1.3,1.45,1.8,1.44-1.18,1.45.9,1.44-1.07,1.45.08,1.44-.58,1.45.72,1.45-.26,1.44-.68,1.45,1.73,1.45.86,1.44-1.26,1.44.23,1.44-.11,1.44-1.9,1.45,2.45,1.45-.34,1.45.65,1.44.26,1.44-2.7,1.45,1.16,1.44.67,1.45-.26,1.45-1.13,1.45.83,1.44-1.69,1.45v1.45l3,1.45-1.76,1.45.74,1.44.86,1.45-2.47,1.45,1.91,1.45-2.17,1.45,2.16,1.45-1.18,1.45-1.24,1.45.8,1.45-.81,1.45,1,1.45.91,1.45-.07,1.45-1.1,1.46-.75,1.45,2.19,1.46-.37,1.42,0,1.42-1.42,1.48,1.1,1.4,1.94.53-.73,3.19,2.14-1.56,1.35,1.06,1.6-2.2Z"/><path class="cls-1" d="M1514.43,48.51l.69.91-1.87.78-.39,1.39.54,1.71.23,1.57-.37,1.36-1.14,1.14-.12,1.44-.49,1.34L1510,61.23l1.19,1.78-2.41.88.52,1.59V67l-.19,1.44.67,1.65-.33,1.42-.61,1.34-.15,1.45-2.21.93.08,1.51.32,1.57-1.38,1.13,1.07,1.78-1,1.22.5,1.64-1.75,1-.55,1.34,0,1.5-1.38,1.1,1.79,2-1.9.94.75,1.75-2.53.72,1.72,2.07-2,.86-1,1.2.58,1.72-1.35,1.07-.36,1.4-.43,1.37-.07,1.51.75,1.8,0,1.53-2.79.52.55,1.75-1.63.92,1.21,2-.81,1.24-1,1.15-.67,1.29-.45,1.38-.29,1.45.54,1.82-2.67.42.82,1.94-1.83.77.76,1.94-.13,1.55-2.59.38-.38,1.42-.81,1.22-.1,1.57-.88,1.17-.2,1.53-.33,1.47-2.09.52,0,1.64,0,1.68-.26,1.53-2.62.15.58,2-1.66.69.81,2.21-2.3.27.69,2.17-.7,1.29h-2.62l-.17,1.63-.56,1.38-1.61.63-.78,1.21-.78,1.2-.37,1.53,0,1.8-1.41.72-.9,1.13-2,.24-1.15.9.94,2.69-2.57-.33-1,1.06-.17,1.77-.36,1.61-2.61-.45-.78,1.22-.08,1.9-.54,1.48-1.06,1-1.69.35-1.7.31-.92,1.11,0,2.1-2.29-.34-.07,2-.59,1.48-2.56-.69-.84,1.21,0,2.15-1.36.62-1.44.52-1.4.56-.79,1.3-1.23.76-.77,1.33-.48,1.71-2.67-1.09-.65,1.5-1.06,1-1.19.81-1.36.56-1.23.73-.81,1.35-1.53.3-.2,2.25-1.9-.26-1.22.76-1.09.94-.75,1.49-.86,1.33-2.58-1.42.09,2.87-1.19.83-2-.46-.74,1.57-1.41.44-1.37.5-1.39.45-.73,1.66-1.23.77-1.85-.41-1.79-.34-1.22.76-.28,2.61-1.64-.05-1.64-.07-1.65-.14-.32,2.67-1.78-.42-1.33.54-1.77-.44-.8,1.72-1.54,0-1.16.94-1,1.42-1.46.22-1.48.19-1,1.3-2.09-1.4-.58,2.48-1.18,1-1.53,0-1.73-.56-1,1.44-1.28.7-1.47.18-1.76-.71-.83,2.07-1.27-1.29-1.77-.07-.51-1.5-.22-1.76-1.24-.84-2-.12.39-2.33-2.89.65-.72-1.31.09-2-1.18-.9-.67-1.36-2.35.17-.29-1.71-1.52-.6.45-2.37-1.71-.41-.56-1.46-1-1.09-2-.15.15-2.11-1.29-.8-.92-1.14-1-1-.72-1.32-2-.17-.73-1.31-1.42-.71-.6-1.6,2,.41,1.1-1.6,1.48,0,1.68.77.89-2.29,1.79,1.16,1.34-.56,1.46-.12.89-2.09,1.89,1.35,1.39-.39.85-2.11,1.22-.88,1.85,1.07.91-1.81,1.74.71,1.34-.53,1.24-.79,1.61.25,1.66.35,1.28-.69,1.31-.59.59-2.43,2.2,1.64.81-1.83,1.82.63.76-1.89,1.79.5.55-2.3,1.77.45.75-1.79,1.93.72.67-1.91,1.43-.31h1.6l1.24-.73.89-1.38,1.4-.4,2.09.82.16-2.64,1.5-.25,1-1.05,1.81.25.63-1.71,1.69,0,1.18-.82,1.4-.47,1.6-.18.18-2.3,1.83.14,1.47-.41.88-1.25,1.07-1,1.74-.08.19-2.13,1-1.09,1.69-.16,1.64-.25-.34-2.68,1.37-.57,1.68-.24,1.51-.44.88-1.18,1.31-.69,1.23-.79-.5-2.62,2.34.38.44-1.61,1.65-.37.92-1.11.16-1.84.59-1.4,1.48-.57.59-1.39,2.53.36-.9-2.72,1.62-.47,1.68-.44-.61-2.38,2.71.4.87-1.14,0-1.81,1.8-.42-.72-2.36,1.58-.61-.09-1.83,1.22-.89,1.2-.91,1.28-.88-.53-2.06,2.13-.35-.64-2.08,1.7-.65,1.11-1,1-1.12.46-1.4-.67-2,1.12-1,1.94-.61-.42-1.83.08-1.56,2.64-.32.57-1.34-1.23-2.15.42-1.38,2.37-.54-.19-1.65-.11-1.6,1.13-1.1-.42-1.71.84-1.21.32-1.42,2-.8,1.09-1.15-1.69-2.12,1.64-1,1.16-1.14-.38-1.64,0-1.51-.11-1.54.6-1.32,1.22-1.14,1.56-1.07-.07-1.52-.9-1.73,1.38-1.14L1467.87,79l1.27-1.18-.4-1.56,1.16-1.22.23-1.43.74-1.32-.31-1.52.46-1.38.79-1.33-.74-.92-1.21.74-1.43-1-1.43.18-1.43-.08-1.43-1.55-1.43,2-1.42-.28-1.43.52-1.43.21L1457,65.69l-1.43.94-1.43.55L1452.7,67l-1.44-.92-1.43.67-1.43-1.38-1.43,0-1.43,2.45-1.43-1.43-1.43.61-1.43.69-1.43-2-1.43,1.56L1437,65.46l-1.43,1.76-1.44-1-1.43-1-1.43.66-1.43-.66-1.43.81-1.43.75-1.44-.06-1.43-.9-1.43-.61L1421.21,67l-1.44-.3-1.43,0-1.43-1.19-1.43.81L1414,67.83l-1.43-2.57-1.43,1.64-1.44-.86-1.43,1.81-1.43-.51-1.43.45L1404,66.38l-1.42.91-1.43-.51-1.43-1.44-1.43.64-1.43-.48-1.44,1.87L1394,65.55l-1.43,1.17-1.43-1.5-1.43.59-1.44.86-1.43-.5-1.44-.45-1.43-.4-1.43,1.91-1.43-.41-1.44-.14-1.44-1.24-1.43,1.84-1.43.19-1.44-2-1.44,1.94-1.43.3-1.44-1.54-1.44,1.47-1.43-1.87-1.43.74-1.44.9-1.44-2L1361,67.73l-1.44-.25-1.44-2.13-1.44,2-1.44.07-1.45.08-1.42-.61-1.44-1.62-1.42,1.2-1.44-.66L1346.66,67l-1.46-1.22-1.41,1-1.45-.92-1.43.07-1.42.42-1.4,1.07-1.44-.24-1.45-.49-1.47-1-1.44,0L1331,67.55l-1.4.61-1.46-.6-1.49-.91-1.43,0-2.09,1.11,0-1.65.86-1.42.39-1.42-1.75-1.42.7-1.42-.8-1.42,1.79-1.42-1.82-1.42,2.51-1.42-.51-1.42-1.56-1.43.2-1.42.63-1.42-.07-1.42.49-1.42.8-1.42-1.66-1.42L1325,42V40.56l-1.35-1.42-.13-1.43-.21-1.42-.07-1.42-.73-1.43,1.15-1.47,1.55.14,1.53-.83,1.38.7,1.51-.7,1.38.82,1.47-.31,1.39.7,1.44.08,1.41.51,1.52-1,1.4.54,1.47-.35,1.34,1.77,1.49-.73,1.43.32,1.46-.28,1.41.82,1.49-1.25,1.4,1.76,1.45-.25,1.45.37,1.43-.57,1.43-1,1.44,0,1.43,1.75,1.43-.25,1.44-1.17,1.43.42,1.44,1.16,1.43-1.68,1.44-.76,1.44.65,1.44,1.72,1.43.28,1.44-1.32,1.44-.84,1.43.31,1.44,0,1.43-.28,1.44,2.18,1.43-1.13,1.44-.84,1.44-.07h1.43l1.44-.47,1.44,0,1.44.23,1.43-.06,1.44.22,1.44,1.33,1.43-1.87,1.44.1,1.44,2.08,1.43.08,1.44-.83,1.44-1.28,1.44,1.78,1.44,0,1.43.39,1.44-.49,1.44-1,1.44,1.23,1.44-2,1.43,1.39,1.44.23,1.44.83,1.44-2.13,1.43,1.35,1.43.6,1.44-.79,1.43-1,1.44,1.48,1.44.53,1.44-1,1.43-.46,1.44-.24,1.44,1.15,1.43,0,1.44-1.39,1.44,2,1.44-2.6,1.44.58,1.44,1.87,1.44-.76,1.44-.81,1.44,1.29,1.44-.94,1.44-.24,1.44-.63,1.44,2.07,1.44-1.88,1.45-.2,1.43.41,1.44-.28,1.45,1.65,1.44-1.3,1.44-.56,1.44,1.17,1.45-.19,1.44,0,1.45,0,1.45-.23,1.42-.95,1.46,2.53,1.42-1.05,1.46.69,1.42-.44,1.32-1.83,1.55,1.44,1.35-.85,1.63,1.45,1.15-2.23,1.46.11,1.5.25,1.66.84,1-1.31,1.29.6.77,1.53,1.46.44,1.75,0,.89,1.32.68,1.66,2.29-.84,1.13.95,1.59.23,1.12,1,1.12,1,.9,1.31.84,1.41.82,1.45,2.12-.58h1.74l1.31.67,1.08,1,.72,1.66Z"/><path class="cls-1" d="M1747.34,191l1.48-.33,1.48.3,1.54,1,1.37-1.92,1.56,1,1.53.48,1.28-2.13,1.62,1.34,1.33-1.54,1.52.31,1.63,1.28,1.45-.26,1.77-1.13.26,1.57-1.74,1.43,1.53,1.44-.78,1.43.54,1.43-.2,1.44.81,1.43-1.49,1.44-.2,1.43.75,1.44-.84,1.43,1.47,1.44,0,1.44-.41,1.43.46,1.43-.13,1.44-.66,1.43-.58,1.44.92,1.44-1.25,1.44,1.4,1.44.4,1.44-.13,1.61-2.14.81-1.4-.42-1.29-1.74-1.51.18-1.52.48-1.47-.14-1.45-.59-1.46-.52-1.5.16-1.52,1.51-1.46-.43-1.47-.66-1.48.05-1.42-.84-1.43-.38-1.44.71-1.43.51-1.43.7-1.43.15-1.43-.68-1.44-.4-1.43,1.25-1.44-1.71-1.43.68-1.43-.63-1.43,1.11-1.44-1.3-1.43.12-1.43.81-1.43-1.1-1.43.89-1.43-.86-1.43,1.75-1.43-1.89-1.43.3-1.44,1.23-1.43.21-1.43-1.84-1.44,0-1.43.78-1.44.07-1.43.76-1.43.19-1.44-1.5-1.43,1.48-1.43.13-1.43-1.63-1.44,1.63-1.43-1.8-1.43.42-1.44,1.17-1.43.05-1.44-1.18-1.43,1.35-1.44-1.42-1.43,1.71-1.44-.66-1.43.5-1.43-.12-1.44-1.86-1.43,1.62-1.44.54-1.43-1.74-1.44,1.37-1.43-.1-1.44.12-1.43-.77-1.44,0-1.43.28-1.44-1-1.43-.38-1.44,1.45-1.43-.12-1.44-1.2-1.43,2.14-1.43-.17-1.43-1.51-1.43-.22h-1.44l-1.43-.42-1.44,1.86-1.43.1-1.44-1-1.43-.64-1.43,1.55-1.44-1.88-1.44,1.21-1.43.4-1.44-1.29-1.43,1.4-1.44-1.33-1.44.12-1.44,1-1.43.66-1.44.06-1.44-.7-1.44.27-1.43-.11-1.44-1-1.44,1.47-1.44-2-1.43.79-1.44.31-1.44.13-1.44.95-1.44,0-1.44-.24-1.45.19-1.44-1.75-1.45.42-1.47.65-1.49-.94-1.45,1.4-1.49-.59-1.45.89-1.53-1.22-1.49-.08-1.45.45-1.55-.82-1.31,2.22-1.6-1.28-1.35,1.29-1.72-1.83-2.2,1.65,1.49-1.74.5-1.44-1-1.43.86-1.43-.11-1.44,0-1.43-.4-1.44-1.2-1.43-.45-1.44,2.24-1.43-1-1.44,1.1-1.43-1.71-1.44.28-1.43.49-1.44.12-1.43-.1-1.44-.27-1.43-1.12-1.44,2.09-1.44-1.4-1.44,1.24-1.44-1.33-1.67,2.24-.78,1.25,2.15,1.5-.1,1.46.33,1.53-.42,1.45.37,1.52-.36,1.51-.25,1.39,1.57,1.53-.62,1.51-.7,1.49-.44,1.44,2.05,1.49-1.4,1.43,1L1611,190l1.42,1.65,1.43-1.61,1.42-.12,1.43,2,1.43-.72,1.42-.31,1.43.86,1.42-.08,1.43-.1,1.42-.6,1.43-1,1.43.59h1.43l1.43,1.24,1.42.28,1.43-2.26,1.43,2,1.43,0,1.43-1,1.43-.75,1.43,2,1.43-.24,1.43-1.15,1.43-.59,1.43.06,1.43.88,1.43.89,1.43-.13,1.43-1.42,1.43,1.68,1.43-1.32,1.44-.64,1.43,2,2-.56-1.23-2,.38-1.45.49-1.44.44-1.45-.46-1.45.17-1.45-.52-1.44-1-1.45,2.29-1.45-.73-1.45-.13-1.45.06-1.45.32-1.44.11-1.45-.58-1.45.57-1.45-1.59-1.45L1660,165l0-1.45-.17-1.45-.78-1.45-.6-1.44,2.36-1.44-2.29-1.45-.08-1.44,1.28-1.45-.9-1.45.3-1.45.22-1.45.26-1.44-1-1.45-.08-1.45,1.14-1.45,1-1.45-.1-1.45-2-1.45.71-1.45.72-1.45.78-1.45-2.1-1.45,1-1.45,0-1.45,1-1.45-1.15-1.46.52-1.45-.37-1.45L1659,123l.32-1.45.36-1.45-.76-1.46,1.9-1.45-1.94-1.45-.45-1.46.45-1.45,1-1.46-.75-1-1,.4-1.45-.27-1.45-1.15-1.46,1.58-1.46-1.77-1.45,1.18-1.45-.58-1.46-.93-1.45.32-1.46,1.32-1.46-1.71-1.45,2.37-1.46-.32-1.45-1.33-1.46.24-1.46-.38-1.46,1.71-1.45-.86-1.46.66-1.45-1.77-1.46.91-1.46-.52h-1.46l-1.46,1.26-1.46-1.4-1.46.39-1.47-.09-1.42.09-1.43-.3-1.39,1.29-1.43-.26-1.4.58-1.44-.5-1.49-1.12-1.36,1.26-1.44-.26-1.5-1-1.3,1.92-1.53-1.34-1.41.28-.64.4-1.59-1.2,1.68-1.44,0-1.44-1.62-1.45-.44-1.44,1.45-1.44-1.32-1.44,1.13-1.45-.07-1.44L1600,96.5l.72-1.45.82-1.44-.18-1.44-.08-1.44-1.88-1.45,2.14-1.44-1.27-1.45,1.17-1.44-1.32-1.45,1.07-1.45-1.72-1.45,1-1.39,1.38-.83,1.22,1.52,1.56-1.14,1.37.46,1.37.76,1.43,0,1.46-.67,1.41.36,1.37,1.64,1.49-2,1.42.52,1.43-.33,1.41,1.07,1.42-1,1.44.83,1.44-.06,1.44.34,1.44.67,1.44-1.67,1.44,1.07,1.44.46,1.44-.46,1.44-.13,1.45.89,1.44-1.45,1.44-.25,1.44.84,1.44.77,1.45-2.1,1.44.41,1.44.83,1.44.6,1.44-.27,1.44.33,1.44.23,1.44-2.06,1.45,1.73,1.44-.77,1.44.82,1.45-.12L1659.2,80l1.44-.49,1.44.63,1.44-.46L1665,81.6l1.45-2.29,1.44.84,1.45.91,1.44-1.85,1.44,2.15,1.44,0,1.45-1,1.44,1.06,1.44-1.84,1.45.83,1.44-1,1.44.45,1.45.44,1.44.53,1.44-1.45,1.44,1.49,1.44-1.51,1.44,1,1.44.41,1.45.24,1.44-.26,1.44-1.42,1.44.47,1.44,1.32,1.45-1.11,1.44-.57,1.45,2.06,1.44-.06,1.44-1.85,1.45-.17,1.44,1.8,1.45-.76,1.44-.66,1.45.58,1.45-.94,1.44.31,1.45-.18,1.44,1.44,1.45.59,1.45-2.11,1.44,1.13,1.45.68,1.44-.79,1.45-.45,1.45-.51,1.45.18,1.45.78,1.45,1.12,1.46-.42,1.4-1.22,1.42,1,1.37-1.39,1.43.83,1.37-.73,1.45.73,1.41-.15,1.44.34,1.36-.65,1.43.08,1.45.38,1.27-1.43,1.32-.8,1.83,1,.19,1.53-.08,1.44-1.43,1.44,1.84,1.45-.26,1.44.49,1.44.19,1.44-2,1.45.87,1.44.5,1.44L1755.8,95l-.85,1.44.62,1.44-1.26,1.44v1.45l2.26,1.44-1.32,1.45.56,1.44.63,1.45L1754.6,108l1.43,1.45-1.57,1.14-.5.81-1.33-1-1.33-1-1.45.5-1.36-.7-1.46.66-1.45.6-1.4-.13-1.37-.89-1.39-.62-1.47,1.59-1.4-.32h-1.4l-1.4-1.11-1.44.74-1.43,1.36-1.44-2.36-1.43,1.51-1.43-.8-1.43,1.67-1.44-.48-1.44.42-1.43-1.3-1.44.84-1.43-.46-1.44-1.33-1.43.59-1.44-.44-1.44,1.72-1.43-1.67-1.44,1.07-1.44-1.38-1.44.54L1707,110l-1.43-.45-1.44-.42-1.44-.36-1.43,1.75-1.44-.38-1.44-.13-1.44-1.14-1.44,1.69-1.45.18-2.12-1.53,1.5,2.13.27,1.44-1.41,1.45,1.35,1.45-1.71,1.45.67,1.44.83,1.45-1.82,1.45,2.08,1.45-.23,1.45-2,1.45,1.83,1.44.07,1.45.07,1.45-.56,1.45-1.49,1.45,1.08,1.45-.61,1.45,1,1.44-1.14,1.45.92,1.45-.88,1.45,0,1.44.34,1.44.94,1.45-.26,1.45-.51,1.45-.94,1.45,0,1.45,1.6,1.44.5,1.45-.63,1.45-.91,1.45-.06,1.45,1.41,1.45-.07,1.44-.8,1.45-.36,1.46,1.61,1.45-.64,1.45.74,1.45-1.65,1.45,1.67,1.45-2.3,1.45.47,1.46,1.43,1.45-.19,1.45-.58,1.45.07,1.45-.45,1.45-.74,1.46,1.53,1.45-1.57,1.45v1.46l1.24,1.46.06,1.29,1.27-.26,1.43-.06,1.44-.67,1.43,1,1.44.07,1.43-.9,1.44.53,1.43-.76,1.44.63,1.44-.4,1.44.53,1.44,0,1.43.37,1.44-1,1.44.4,1.44-.41,1.44,1.54,1.43-.76,1.44.22,1.44-.32,1.44.7,1.44-1.21,1.44,1.57,1.45-.25,1.44.33,1.44-.53,1.44-.9,1.44,0,1.44,1.6,1.44-.22,1.44-1.08,1.44.38,1.45,1.07,1.44-1.54,1.44-.7,1.45.6,1.48,1.57Z"/><path class="cls-1" d="M2024.86,45.48l-.15.55-.62,1.37-.14,1.66-1.28,1-2,.6-.82,1.27,1.55,2.57-2.25.49-.39,1.49-1.68.84-.26,1.56.26,1.77-1.47.9-.17,1.48,0,1.55,0,1.54-1.25,1-1.62.82,1,2.06-1.5.87-1.68.77.32,1.74.83,2-1.16,1-1.32.94.14,1.66-.68,1.26-.36,1.41-1.8.68-.58,1.31-.59,1.29-2,.58.89,2.09-1.67.73-.44,1.37-1.5.81.3,1.79-1.43.84-.73,1.22-.49,1.36-1,1.07.17,1.74-1.71.66-.7,1.25,0,1.66,1,2.26-2.71,0,0,1.64-1,1.07v1.67l-.39,1.45-2,.45.17,1.79-.58,1.34-1.44.78-1,1-1.5.72.17,1.83-1.72.57-.05,1.69,0,1.77-1.63.62-1,1,.22,1.91-1.35.8-.83,1.18-2.32.07.08,2,1.11,1.13,1,1.07,1.83.1.91,1.13,1.32.69.94,1.09.18,1.94,2.25-.34.84,1.23.73,1.32,1.18.85.38,1.7.7,1.35,2.66-.72-.75,2.88,2.44-.48,1,1.1.77,1.28,1.16.86,1.47.55-.5,2.58.84,1.2,1.77.25,1.69.34,1.35.68.65,1.4.7,1.34.75,1.29,2.31-.26.62,1.42.66,1.37,1.59.46.86,1.19.83,1.21,1,1.08.63,1.4,1,1,1.22.83.8,1.24,1.54.53,1,1-.1,2.09,1.72.36.18,1.81,1.42.65.76,1.27.28,1.71,1.37.69.73,1.29,1.36.71.71,1.3,1.57.51,2.13,0,.37,1.61-.11,2,1,1.06,2,.12-.09,2,.65,1.35,2.61-.38.19,1.76,1,1.07.93,1.1.93,1.09.22,1.7,1.53.59,0,1.92,1,1,2.4-.14.68,1.59-2.28-.29-.06,2.16-.85,1.25-1.37.65h-1.94l.33,2.6-2-.07-1.58.42.46,2.76-2.27-.39,0,2.21-1.47.54-2.24-.34-1,1-.11,2.09-.93,1.17-2.46-.6.1,2.34-1.72.26-.69,1.44-1.26.78-.47,1.69-2.27-.38-1.27.79-.53,1.64h-1.46l-.88.25-.84-1.18-.47-1.45-1.3-.83-.75-1.24-.25-1.63-.33-1.56-1.75-.48.28-2.06-2.21-.11-1.26-.84-.81-1.21-1.56-.6-.69-1.29.56-2.32-1.21-.88-1.47-.67-.89-1.14-.46-1.5-.52-1.45-1.13-.94-2.35.09-.57-1.41-.37-1.58-1-1.06L1996,197l-.61-1.39-1.59-.53-1.42-.68-1.58-.53-1.1-1-.36-1.62-.61-1.4-2.08-.08.53-2.44-1.57-.52-.43-1.58-2-.17.16-2.12-1.09-1-1.69-.41,0-2-1.76-.33-.26-1.76-2.51.38.63-2.6-1.27-.8-2.06,0-1.18-.87.56-2.57-1-1.07-1.68-.39-1.07-1-1.67-.39-1.18-.88.25-2.29-2.28.22-1.14-.92.34-2.4-2.4.35.47-2.54-1.38-.67-2,0-1.08-1-.06-2-1.49.41-1.54-.42.47,2.44-1.56.49-.57,1.44-1.11.93-2.58-.54.36,2.37-.56,1.48-2.48-.47.12,2.16-1.11.93-.94,1.09-1.67.33-1,1-.82,1.23-1.86.11-1.35.64.11,2.24-1.15.86-2-.1.64,2.86-1.21.8-2.27-.39-1.24.75-1.07.95-1.41.56.35,2.6-1,1-1.91,0-1.58.33.08,2.34-2.53-.81-.2,2-.81,1.28-2.08-.3-.09,2.19-2.1-.35-1,1-.41,1.82-.66,1.5-1.1.93-1.64.2-1,1.12-1.23.76-1.89-.15-.13,2.26-2.53-1-.61,1.6-1,1.13-1.08,1-.53,1.75-1.17.84-1.35.57-1.06,1-2.36-.93L1894,207l-.77,1.43-1.82-.16-.32,2.15-1.61.14-.68,1.62-2-.54-1.32.61-1,1.11-1.79-.2.06,2.89-2.1-.72-.56,1.89-2.45-1.37v2.86l-2.15-.89-1.54.17-.68,1.73-1.75-.21-1.19.78-1.25.71-1,1.09-.62,1.93-1,1.13-2.48-1.74-.73,1.73-1.86-.55-1.12,2.42-.92-1.41-.58-1.44-.89-1.15-1.09-1-1.23-.82-2-.13.8-2.76-2.21.11.08-2.08-2.18.09-1.43-.64.72-2.69-1.21-.84-.84-1.18-1.48-.59-.8-1.24-1.41-.65-1.31-.75.26-2.25-1.61-.47-1.67-.41-1.42-.64.73-2.7-2.22.1-.17-1.85h-2.7l2.75-.39.65-2.31,1.28-.66,2.24,1.66,1-1.36,1.19-.9,1.74.37,1.28-.68,1.28-.7,1-1.25.8-1.69,1.61,0,1.29-.64,1.94.69,1.45-.35.08-3.05,2.36,1.45,1.3-.65.74-1.7.86-1.46,2.42,1.44,1.14-.94.6-1.9.92-1.32,1.28-.65,1.78.19,1.78.18,1.17-.88.38-2.19,2.27,1,.41-2.1.83-1.4,2.52,1.29,1-1.09.28-2.26,1.46-.4,1.53-.3,1.49-.37.9-1.27,1.32-.64.84-1.32.55-1.76,2.75,1.41.69-1.55,1.09-1,1.21-.8,1.4-.54,1.25-.75.76-1.42,1.57-.32V162l2,.23,1.18-.84,1-1.06.56-1.62.69-1.46,2.88,1.29-.58-3,1-1,2.09.25.43-1.74,1.33-.66,1.27-.73,1.3-.7.31-1.86,1-1,2,.06,1.9,0,1-1.06-.55-2.75,1.64-.35,1.64-.35,1.7-.32-.66-2.81,1.91-.09,1.08-1,1.9-.13.08-2,1.46-.58.7-1.34.29-1.74,1.28-.77,1.3-.75.34-1.66,2.63.49-.71-2.63.57-1.42,1.35-.69,1.85-.27.09-1.8.72-1.25,1.16-.88,2-.23-.55-2.29,2.53.21-.22-2,1.42-.7,1.75-.45.57-1.37-.39-2.08,2.47.06-1.42-2.81,1.14-.93,2.12-.24.58-1.34,1.2-.91-.87-2.32,1.65-.61.14-1.62,2.54,0-.13-1.79,1.3-.87.77-1.2-.51-2,2.17-.34.35-1.46.82-1.17.65-1.28,1-1-.59-2,1-1.06.14-1.54,1.26-.93,1.93-.6-.6-1.92,1-1.07,1.77-.73-1.32-2.24,2.16-.55.43-1.38.85-1.19L1971.09,74l2.38-.54.57-1.32-1.27-2v-1.5l2.1-.75-1-1.84,1.68-1-1.46.08-1.45.37-1.45-.86-1.45-1-1.44.22-1.45.09-1.44,2.24-1.45-2.55-1.45,1.52-1.44-1.4-1.45,1.57L1958.14,64l-1.45,2.06-1.45-1.25-1.44,1.43-1.45-1.61-1.45,1.55-1.44-.38L1948,65l-1.45.09-1.45.89-1.45-.35-1.44-1.89-1.45,2.44-1.44-.57-1.45.42-1.44-1.25L1935,66l-1.45-1-1.45.07-1.45-.4-1.45-.8-1.44,2-1.45-1.26-1.44-.55-1.45.54-1.45.16-1.45-1.06-1.45,1.73-1.45.3-1.45-1-1.45-.92-1.45,2.5-1.44-.49-1.46-1-1.45-.72-1.45.33-1.45-.4-1.45-.27-1.45,2.46-1.45-2.07-1.45.92-1.45-1-1.45.13-1.46,1.28-1.45.59-1.45-.76-1.46.56L1890,63.63l-1.4,2.72-1.43-1-1.44-1-1.34,2.24-1.52-2.49-1.42.13-1.36,1.28-1.5-1.19-1.28,2.29-1.49-.9-1.32,1.35-1.46-.43-1.45-.41-1.47-.52-1.27,1.83-1.56-1.64-1.28,1.89-1.51-1.11-1.45-.38-1.43-.19-1.06.62-1.68-1.34.55-1.43,1.58-1.43-1.32-1.43-.68-1.43,2.45-1.43-.06-1.43-2.21-1.43-.2-1.43,2.13-1.43-.89-1.43-.79-1.43.69-1.44-1.12-1.43.37-1.43-.22-1.43,1.72-1.43.7-1.43-2.51-1.43,1.35-1.44.81-1.43-1-1.44-.53-1.43-.61-1.44.26-1.71,2.25.5,1.27,1.48,1.48-.35,1.54-1.3,1.32,1.27,1.54-1.49,1.34,1.15,1.46-.69,1.36,1h1.42l1.39.59,1.45-.57,1.41.3,1.4.67,1.48-1.48,1.44-.72,1.39,1.16,1.42-.16,1.41.13,1.4,1.71L1890,31.8l1.43.31,1.43-.57,1.43-.24,1.43,2.41,1.43-1,1.43-.6,1.43.23,1.43,1,1.43-.74,1.42,1.51h1.43l1.43-2.69,1.43,1.57,1.43-.67,1.43-.75,1.44,2.2,1.43-1.71,1.43,1.94L1917.2,32l1.43,1,1.44,1.11,1.43-.72,1.43.73,1.43-.89,1.43-.82,1.43.07,1.43,1,1.43.67,1.42-2,1.43.33,1.43,0,1.43,1.31,1.43-.89,1.43-1.61,1.43,2.81,1.43-1.79,1.43.94,1.42-2,1.44.56,1.43-.5,1.43,1.55,1.43-1,1.43.56,1.44,1.57,1.43-.69,1.43.52,1.43-2,1.44,2,1.43-1.28,1.43,1.65,1.44-.65,1.43-.93,1.43.53,1.44.49,1.43.44,1.43-2.08,1.44.45,1.44.15,1.43,1.36,1.44-2,1.44-.21,1.44,2.15,1.47-2.13,1.45-.35,1.52,1.63,1.4-1.66,1.58,2,1.42-.9,1.39-1.1,1.66,2,1.21-2.62,1.48.1,1.77,2.12,1.14-2.38,1.43-.32,1.41-.35,1.56.36,1.86,1.39,1.11-1.64,1,.22,1.72-.23.33,1.95,1.8,0,.53,1.69,1.17.82,1.39.52,1.81,0,1,1.11.79,1.34.48,1.75,1.12.89,2.28-.67,1.5.38.71,1.46.5,1.72,1.11.92,2.36-.27Z"/><path class="cls-1" d="M2311.87,54.91l-.83,1.22-1.13,1,.15,1.68-.2,1.48-2.14.5,0,1.59.39,1.74-1.9.68,1.1,2-1.89.72.36,1.68-1.27,1-1.54.92,1.81,2.16-1.72.91.12,1.57-2.3.7-.51,1.33.5,1.71-1.32,1-1,1.15,1,1.94-1.18,1.08-.39,1.39.16,1.61.24,1.66-1.48.94.14,1.62-.49,1.35-2.76.36.76,1.89-.3,1.44.48,1.79-2.71.34-.11,1.53v1.59l-1.88.69.59,1.88L2290,106l-1.42.9-1.49.86.61,1.91-.32,1.45-2.18.49-.47,1.37,1.39,2.36-2.79.14.94,2.14-2.26.39-.8,1.2-.87,1.15.15,1.73-1.08,1-.54,1.35-.18,1.56-1,1.11-.08,1.63-2,.48-.3,1.5,1,2.34-1,1.07-.77,1.22-2.46.13.54,2.07-1,1.09-1.77.55-.82,1.18-1.92,1.81,2.21,1.33,2.55-1.32.16,2.47,1,1.14,2.31-.92,1.47.43.08,2.55.88,1.31,2.23-.73.84,1.37.45,1.94h1.75l2-.41.61,1.68,1.92-.21.24,2.21,2.06-.42.38,2,2-.37,2,2.27-1.89,1-.13,1.72-1.79.42-.57,1.38-2.15.15-.27,1.6.2,2-1.93.33.19,2-1.51.65h-2.34l1.31,2.85-.89,1.12-1.9.34-.8,1.19-.44,1.48-1.5.66-.42,1.48-.92,1.12-1.92.32-.92,1.12.27,2-1.26.84-2,.25.28,2-.29,2.19-2.9-1-.13-2.13-.23-2-2.66.92-.59-1.61-.8-1.37-1.49-.48-.18-2.18L2259,180v-2.43l-2.67,1.1-1.08-1-.42-1.91-.23-2.19-1.22-.84-1.81,0-2.09.38-1.28-.73.36-3.09-2.19-.91v3.14l-1.57.49-1.4.65-1,1,0,2-2.14-.09.09,2.11-.67,1.37-1.58.44-2.46-.47.7,2.79-2.77-.84.3,2.41-1.92,0-.21,1.88-.5,1.6-2.14-.24-1,1h-1.89l-1.08.93.38,2.64-.9,1.17-2.88-1.22.83,3.26-2.64-1-.73,1.38-.64,1.5-1.26.71-2-.18-.57,1.62-1,1.05-.67,1.5-1.54.33-2-.36-1.21.76.44,3.1-2.25-.71-.95,1.13-1.86-.19-.91,1.21-.61,1.66-1.77-.1-.94,1.18-.87,1.31-.87,1.31-1.64.09-1.84-.27-.23,2.4-1.77-.17-1.87-.37-.68,1.68-.39,2.22-1.56.17-1.65,0-.82,1.5-1.29.65-1.11,1-1.91-.55-1.23.74-1.24.73-2-.75-.44,2.33-1.81-.45-1.17.88-1.72-.28-.78,1.69-1.68-.22-1.32.56-1.2.81-1.45.25-.88,1.57-1.8-.57-1.3.59-1,1.39-.5,2.55L2157.2,230l-1,1.33-1.45.24-1.51,1.36-1.5-.68-.07-2.1-1.85-.05-1.24-.76-.53-1.58-.89-1.16-.48-1.63-1.89,0-.31-1.83-1.72-.21-1.81-.11-.38-1.74-.94-1.12-2,.1-.63-1.45-1.1-.92.2-2.42-1.92,0-1-1-1-1.08-1.88,0-.93-1.13-1.33-.65-1-1.09-.17-2-2.33.48-1-1.43,2-1.12,1.32-.62,1.69.57,1.54.06.58-2.84,2.26,2.18.66-2.52,1.4-.34,1.5-.09,1.28-.68,1.11-1.13,2.19,1.69,1.45-.24.93-1.59,1-1.47,1.14-1h1.56l1.51-.12,1.5-.19.54-2.36,1.56,0,1.53-.11.95-1.38,1.4-.4,1.41-.36,1.33-.57,1.54-.12,1.26-.7,1.14-.94,1.42-.39.91-1.37,1.22-.74,2,.74.75-1.64,1.84.34.94-1.25,1.42-.43,1.77.15,1-1.22,1.43-.44.94-1.22,1.43-.44.75-1.51.31-2.18,1.67-.06,2.06.5,1.19-.83.33-2.08,2,.42,1.44-.48-.2-2.76,1.8,0,1.15-.87,1.17-.84,1.15-.86,1.76-.09.62-1.54,2,.17,1.06-1-.19-2.51,1.33-.65,2.29.49v-2.23l.82-1.25,1.37-.62,2,.06-.49-2.7,2,.12,1.59-.41-.69-2.85,2.35.4-.19-2.28,1.44-.56,2.32.31.94-1.1-.13-2.16.55-.54.35-2-2.28.85-.69-1.62-1.59-.21-1.09-1-1.78.09-.21-2.38-1.1-1-1.74,0-.66-1.69-2.23.82-1.22-.79-1-1.21-1.54-.27-1.16-.9-.79-1.48-.86-1.39-1.85.23-.41-2.11-2.17.76L2192,135l-1.18-.86h-1.71l-1.1-1-.2-2.49-1.46-.4-1.64-.08-1.22-.79-.92-1.3-.95-1.22-1.39-.5-2.25,1-1-1.17-.85-1.42-1.29-.67-.72-1.65-1-1.14-1.49.7.4-1.38.3-1.68.84-1.21,1.62-.51,1.35-.75-.21-2.15,2.59.36.33-1.66,1.57-.55-.09-2,2.21,0,.86-1.2.2-1.77,2-.15.14-1.85,1.79-.36-.69-2.58,2.76.52.69-1.35-.18-2.14.78-1.27,2.43.72-.12.75,1.72-.23,1.3.58,1.72-.2,1.37.45.36,2.36,2.15-1,1.33.53.28,2.5,2.23-1.15.17,2.69,1.5.22,2-.62,1.28.63.53,2,2.08-.81.37,2.27,2.3-1.2.83,1.43,1.56.14,1.17.84.08,2.76,2.26-1.08,1.59.1.14,2.63,2.1-.8,1.18.82,1.31.6.75,1.56,1.26.69,1.42.41.59,1.82,1,1.14,2.17-.86,1.17.86.45,2,2.63-1.61.2.77,1.6.44,1-1,.79-1.2,1.23-.92-1.2-2.48.65-1.27,1.89-.5,1.45-.79-.94-2.25H2249l-.59-2,.28-1.5,2.15-.42L2250,107l2.18-.43.56-1.33-.43-1.86-.07-1.65.59-1.3,1.45-.86.34-1.42.75-1.22,1.83-.7-1.07-2.1,2.86-.23-.31-1.72.23-1.47.42-1.37-.55-1.79.54-1.32.83-1.19.3-1.41,2.6-.52V81.55l-.28-1.62,1.62-.94-1.2-1.91,1.2-1.11-.61-1.67,2-.89.56-1.33-.1-1.52-1.45-1.18-1.45,2.68-1.44-1.81-1.45,1.45L2259,69.12l-1.45,2.65-1.44-2-1.45-.64-1.44,1.27-1.45-1.09-1.45.14-1.44,0-1.45.51-1.45,1.54-1.44.57-1.44-2.85-1.44,1.32-1.44-1.4-1.45,2.18-1.44-.36-1.45-.62-1.45-.16-1.44.14-1.45.34-1.44,1.42-1.44-2.67-1.45,1.8-1.45-1.59-1.45,1.75-1.44.63-1.45-2.55-1.45.33-1.45-.23-1.44.72-1.45-.3-1.45.61-1.45.46-1.45-1.86-1.45.9-1.45,1-1.44.63-1.45-2.57L2204,71l-1.45-1.24-1.45,2.16-1.45-2.1-1.45,2-1.46.15-1.45-2.55-1.5.93-.66,1.44-1.74.48-.78,1.2-.78,1.21-.29,1.59.1,1.92-1.49.66-.89,1.13-2.13.11L2184,81l1.29,2.94-2.85-.51-.94,1.08v1.89l-.21,1.72-2.9-.62-.72,1.28.15,2-.4,1.57-1,1-1.8.32-1.8.29-.85,1.17.34,2.28-2.54-.42.24,2.2-.41,1.61-2.87-.78-.71,1.31.32,2.33-1.36.69-1.46.57-1.41.61-.61,1.43-1.19.84-.58,1.47-.21,1.88-3-1.14-.41,1.65-.95,1.1-1.1.92-1.34.66-1.16.85-.59,1.51-1.56.39.25,2.48-2.07-.19-1.13.89-1,1.09-.47,1.68-.63,1.51-3-1.42.7,3.17-1.06,1-2.14-.39-.44,1.78-1.38.58-1.32.65-1.35.59-.4,1.89-1.11.93-2-.33-1.93-.25-1.09.93-.93,3.07-.89-1.77-.58-1.6-.52-1.66-2.76,1.25-.32-1.93-1.09-.92-.33-1.93-2,.29-.73-1.39-1.43-.5h-1.79l-.88-1.19-.86-1.23-1.72-.11.34-2.78-2.64,1.09-1.48-.43-.79-1.33-.34-1.9-1.86.06-1.3-.65-.93-1.16-.25-2-2.66.39,2.82-.64.44-2,1.61-.15,1.87.21,1-1.14.29-2.2,2.41,1-.49-3.3,1.42-.48,2.15.56,1-1.1,1.46-.45-.1-2.61,1.81,0,.65-1.54,2.52.92.45-1.8,1.55-.37,1.15-.89.13-2.16,2.24.48.82-1.3,1.18-.84,1.06-1,1.37-.63.05-2.15,1.36-.65.64-1.46,1.56-.44,2.1.16,0-2.1,1.37-.66,2,0-.56-2.68,2.32.31.89-1.17,1.26-.8-.44-2.49,2.54.46,1-1-.49-2.48.59-1.43,2.33.2-.26-2.2,2-.1.9-1.14.66-1.34,1.64-.49,1.75-.42.76-1.26.87-1.17-.92-2.65,3,.61-.35-2.15,2.07-.2-.41-2.19,2-.3-.86-2.49,1.94-.34-.35-2.08,2.24-.14-.49-2.15,1.18-.92,1.51-.7.76-1.23,0-1.73,1.12-1,2.48-.06L2170.33,45l1.3-.87.42-1.45,1.9-.49-.34-1.93,1.67-.65.7-1.26,1.11-1,1.48-.8-1.07-2.32,1.89-.56,1.24-.94.21-1.53.6-1.32,1.72-.7-.93-2.17.39-1.42,1.61-.79,1.52-.87L2184,21.49l1.07-1.08,1.56-.87,1.29-1,.24-1.47,1-1.19.81-1.25-2-2.29,2.58-.59-.45-1.7,1.45-1,.3-1.44-.9-1.77.87-2.42,1.49,1.24,1.53-.14.62,2.78,2.21-2.36,1,1.43,1,1.53L2201.73,6l.54,3,1.37.36,1.73-.81,1,1.72,2-1.83,1.05,1.44,1.75-.86,1.18,1,1.19,1,1.15,1.07,1.9-1.34.79,2.22,1.93-1.41,1,1.68,1.2.92,1.27.72,1.45.1,1.89-1.31,1.19,1,.62,1.9.17.87-.18,1.59-3-.24-.72,1.25,1.22,2.47-.58,1.32h-2.7l.07,1.74,0,1.66-1.38.85.29,1.85-1.08,1-.52,1.35-2.31.31-1.38.86,1.61,2.59-2,.51-1.46.81.17,1.75-.22,1.52-.21,1.68-1-1.4,1.23,1,1.43,1.42,1.43-.54,1.43-1.53,1.43,1.23,1.43-1.71,1.44,1.12,1.43-.85,1.44,1,1.43-.08,1.43.56,1.43-.69,1.44.24,1.43.65,1.44-1.64,1.43-.82,1.44,1.19,1.43-.21,1.44.1,1.43,1.81,1.44-2.34,1.44.33,1.43-.62,1.44-.24,1.44,2.57,1.44-1.11,1.43-.64,1.44.25,1.44,1.07,1.43-.78,1.44,1.61,1.44,0,1.44-2.87,1.44,1.68,1.45-.71,1.44-.82,1.49,2.35L2267.1,41l1.56,2,1.37-2.13,1.55,1,1.59,1.06,1.42-.91,1.57.6,1.36-1.14,1.34-1.09,1.46-.18L2282,41l1.64.37.92-2.4,1.63-.07,1.27.75.49,1.94,1.72,0,2.13-.71-.35,3.31,2.23-.88.69,1.62,2.34-1,.91,1.27,1.49.3.36,2.16,1.78-.15.91,1.26.34,2.19,1.62.13.93,1.23,2.38-1.11.11,2.57,1.94-.4.34,2.27Z"/><path class="cls-1" d="M2430.7,239.12l-1.58.66-1.44-1.32-1.45.52-1.44.07-1.44.52-1.44-.41-1.44-.94-1.44.46-1.44-.32-1.44.95-1.44-1.06-1.45,1.4-1.44.12-1.44-1.46-1.44,1.78-1.44-1.64-1.45-.55-1.44.79-1.44-.28-1.44.25-1.45.53-1.44-1-1.44.35-1.44,1.25-1.43-.51-1.44-.74-1.44-.48-1.44.2-1.45.34-1.44,1.21-1.44-.4-1.44-.24-1.44.58-1.44-.58-1.45-.15-1.44.66-1.44-1.69-1.45.85-1.44.14-1.44,0-1.45-1-1.44,1.68-1.45-1.27h-1.44l-1.45.53-1.44-.49-1.45.63-1.44-.66-1.45-.22-1.44.52-1.45-.81-1.44,1.92-1.45-.59-1.45.8-1.44-.89-1.45.72-1.46-.32-1.95-.07,1.06-1.93-.54-1.44-1.08-1.43,1.48-1.43.26-1.43,0-1.43-.5-1.43.21-1.44-.12-1.43-.35-1.43.12-1.43.36-1.43-.64-1.43-.36-1.44,1.19-1.43-.51-1.44-.77-1.43,1-1.44-1-2.11,2.11.76,1.45-.7,1.45.57,1.44.78,1.45-1.72,1.44.94,1.45-.44,1.45,1.36,1.45,0,1.45-.75,1.45.62,1.45.36,1.45-1.19,1.45.5,1.45-.11,1.45-.53,1.45-.6,1.45.71,1.45-.55,1.45-.06,1.45,1.69,1.46-1,1.45-.22,1.45-.83,1.46,1.63,1.45-.38,1.45-.49,1.45,1,1.45-1,1.46.09,1.45.62,1.45.66,1.46-1,1.45-.26,1.46,1.2,1.46-.15.92-1.43,1.45-.89-1.3-1.43,1.27-1.44.08-1.44.13-1.44-.69-1.44.29-1.44-.15-1.43-.44-1.44.17-1.44-.54-1.43,1-1.44-.37-1.43-1.49-1.44.21-1.43v-1.44l1.41-1.43-1.11-1.44.15-1.44.82-1.43v-1.44l.75-1.44-.37-1.44-1.75-1.44,1.41-1.44.31-1.44-1.44-1.44-.3-1.43,1.48-1.44.43-1.44-1.3-1.43.49-1.44.95-1.44-.68-1.44-1.05-1.44.75-1.44-.9-1.44,1.19-1.44-1.07-1.43,1-1.44-1-1.44-.29-1.44.69-1.44-.67-1.44.81-1.44-.28-1.44,1.14-1.44-.55-1.44-1-1.43.93-1.44-.95-1.44.55-1.44,1.31-1.44-2-1.44v-1.44l.91-1.44-.08-1.44-.39-1.44.55-1.44-.41-1.43,0-1.44.93-1.43,0-1.44-1-1.45.34-1.44,1-1.43-1-1.44-.84-1.44-.11-1.44,1.09-1.44,1-1.44-1.69-1.44.62-1.44.4-1.44-.38-1.45,1.14-1.44-1.79-1.44,1.36-1.44-1.75-1.44.12-1.45.91-1.44,1.16-1.44,0-1.45-.74-1.44-1.08-1.44-.1-1.44,1.93-1.45-.15-1.44-1.75-1.45.58-1.44.4-1.45V79.34l-.73-2,2,.89,1.42-1.1,1.43-.35,1.43.57,1.42,1.45,1.43-1.76,1.43,1.78,1.43-1.39,1.42.9,1.43-.87,1.43-.6,1.43,1.13,1.42,0,1.43.87H2422l1.43-1.59,1.43-.22,1.43,2,1.43-2.15,1.44,1.71,1.28-.5.48,1.28-.15,1.43-.95,1.44.67,1.43.16,1.44.57,1.43-.45,1.43-1,1.44-.07,1.43,2,1.43-1.32,1.44.27,1.43-.85,1.43L2430,98l.75,1.44-.75,1.43.34,1.44.45,1.43.45,1.44-.55,1.43-.85,1.44,1.37,1.44-.74,1.44-.9,1.43.79,1.44,1.22,1.44-.44,1.44-.58,1.43.66,1.44,0,1.44.25,1.43-1,1.44.07,1.43.05,1.44-1.1,1.43,1.34,1.44L2430,131l.2,1.44-.71,1.44.85,1.44-.64,1.43,0,1.44.18,1.44-.25,1.44.76,1.44-.87,1.44,0,1.43.65,1.44,1.53,1.44-1.75,1.43.61,1.44-.22,1.44L2431,154l.32,1.44-1.09,1.44.83,1.44.18,1.44-.6,1.43-.2,1.44-.65,1.44.87,1.44-.84,1.44.69,1.43.78,1.44-.75,1.44-.16,1.44,1,1.44-.48,1.44,0,1.44-1.39,1.44.91,1.44-.05,1.44-.12,1.44.86,1.44-.18,1.44.28,1.44-.14,1.44-1,1.43,1.33,1.44-.25,1.43-.36,1.44.13,1.44-.74,1.44-.39,1.44,1.78,1.44-2,1.44,1.53,1.43-.1,1.44-.29,1.44.14,1.45.47,1.44-1.67,1.44-.2,1.44.81,1.44.7,1.44.36,1.44-.41,1.44-.34,1.45-.29,1.44,1.37,1.44-.42,1.44-.38,1.45.61,1.44-.16,1.44-.2,1.44,0,1.45-.4,1.44,0,1.45.23,1.44-.22,1.45.56,1.41Z"/><path class="cls-1" d="M2534.12,193.36l-2-1.49,1.28-1.37-.61-1.55.75-1.34,1-1.22-.42-1.65.63-1.32,0-1.62,1.79-.7.26-1.53.59-1.37,2.11-.15.86-1.08,1.11-.84-.26-2.49,1.56-.39,1.49-.39.9-1.3,1.53-.2,1.22-.8,1.54,0,.94-1.75,1.48-.22,1.54.16,1.34-.95,1.62,1.39,1.38-.72,1.45-.12,1.47-.59,1.43.6,1.28,1.28,1.49-.31,1.3.69,1.68-.71,1,1.65,1.95-1,1.42.49.46,2.22,2.35-1.07.1,2.45.7,1.36,1.67.21.77,1.23,1.16.85,1.39.73-.17,1.85,1.09,1,2,.58.07,1.6-.3,1.65-.12,1.51.57,1.28.67,1.29,1.64,1.25-.36,1.52-.26,1.47.67,1.48-.82,1.41-.37,1.41.51,1.59-2.31.89.55,1.64-.36,1.4-.55,1.33-1.71.68.95,2.27-2.07.3-.88,1.08-.49,1.48-1.43.56-.59,1.5-1.61.23-1.3.55-.9,1.25-1.68-.23-.38,2.67-1.63-.13-1.12,1.37-1.7-.65-1.26,1.15-1.52-.14-1.45.33-1.54-1.41-1.41.67-1.5,1.26-1.33-1.87-1.37-.46-1.38-.26-1.51.29-1.3-.61-1.4-.29-1.48-.13-1.26-.71-1.07-1-1.63-.06-1.45-.46-.29-2-1.47-.46-1.69-.35-.08-1.89-2.12-.17.15-1.9-1.47-.81-.09-1.61.25-1.67-2.44-.61.63-1.75-.87-1.28,1.32-1.71-.15-1.37-1-1.33ZM2538.4,64.7l-2.12-1.33,1.12-1.48-.85-1.42L2537,59l.59-1.46-.94-1.42.08-1.45-.7-1.42,1.2-1.48-.62-1.43-.34-1.43,1.5-1.49-.12-1.44.14-1.45-2.08-1.39.61-1.47.47-1.45-.68-1.43.5-1.46-.25-1.44.49-1.46L2535.46,33l.14-1.45.44-1.46-.74-1.43,1.35-1.05,1-.42,1.44-.09,1.44-.62L2542,27l1.44,1.12,1.44-.55,1.44.38,1.43-1.12,1.44,1.25,1.45-1.65,1.44-.15,1.44,1.73,1.44-2.11,1.44,1.95,1.44.64,1.44-.93,1.44.33,1.44-.29,1.45-.63,1.44,1.2,1.44-.41,1.45-1.48,1.44.61,1.44.87,1.44.57,1.44-.23,1.45-.4,1.44-1.45,1.45.48,1.44.29,1.45-.7,1.59.76-.18,1.57.74,1.47L2581,31.5l1,1.48.12,1.45v1.44l-1.23,1.4,1.94,1.51-1.56,1.4,0,1.44.59,1.47-.64,1.42.71,1.47L2581,47.4l-.3,1.44.57,1.46-1,1.41,2.22,1.52-.75,1.42.9,1.48-1.11,1.41.81,1.48-.42,1.43.11,1.46-1.55,1.4.59,1.47,1.13,1.57-1.9,1.25-.45,1.41-.18,1.43.45,1.5-.4,1.41V74.8l.26,1.47-.28,1.42-.58,1.39.62,1.52.27,1.47-1.55,1.3.45,1.5.77,1.53-1.35,1.31,1.38,1.59-1.36,1.31.67,1.52-.82,1.37-1.06,1.34,1.89,1.65-1.26,1.32.37,1.49-1.75,1.27-.17,1.43.74,1.52-.88,1.36-.57,1.39,1.25,1.58-.74,1.37v1.45l.48,1.5.56,1.51-1,1.35.49,1.5-.07,1.44-2.14,1.24,1.07,1.56.11,1.46.84,1.54-2.08,1.24.3,1.49L2575,128l-1.32,1.32,1,1.56-.24,1.42-.88,1.37-.94,1.36,1,1.56.17,1.47-1.57,1.29,0,1.46,1.8,1.64-2.14,1.23,1.39,1.6-1.64,1.29-.24,1.44-.31,1.42.82,1.23-1.12-.47-1.44.18-1.44.53-1.45-.21-1.44.65-1.44-1.21-1.44.44-1.44,1.77-1.44-.24h-1.44l-1.44-1.67-1.45,1.32-1.44-.18-1.44-1-1.45,0-1.44-.88-1.45.44-2.25,1.77,1.12-2.38.21-1.47-1.84-1.26-.51-1.4,1.59-1.62.36-1.49-1.68-1.27.42-1.5,1-1.55-.95-1.35-1.39-1.31.73-1.52-1.21-1.33,1.25-1.59-1.41-1.3,1-1.56-1.39-1.3-.5-1.4.66-1.52-.94-1.36.81-1.53-.48-1.41,1.19-1.57-.8-1.37-1.29-1.32.95-1.54-1.27-1.32.51-1.5,1.39-1.59-2.47-1.2-.14-1.44.93-1.55-.25-1.42-.61-1.39.5-1.5-.63-1.38-.12-1.44.94-1.56L2541,95l-1.37-1.31.24-1.47L2541,90.6l-1.38-1.31L2538.46,88l-.28-1.43,1.13-1.57,1-1.57-2.15-1.23.58-1.51.33-1.49-.6-1.39,1.2-1.58L2537.43,75l1.45-1.61-2.21-1.22,0-1.46.93-1.55,1.21-1.59-.24-1Z"/></g></svg>